<svg width="166" height="81" viewBox="0 0 166 81" fill="none" xmlns="http://www.w3.org/2000/svg">
<path d="M0.0732422 12.1037C0.0732422 6.7156 4.4412 2.34764 9.82934 2.34764H146.415C151.803 2.34764 156.171 6.7156 156.171 12.1037V70.6403C156.171 76.0285 151.803 80.3964 146.415 80.3964H9.82934C4.4412 80.3964 0.0732422 76.0285 0.0732422 70.6403V12.1037Z" fill="#F5F5F5"/>
<path d="M15.683 66.692H19.797V50.5739L26.1659 64.6302C26.9171 66.3247 27.9464 66.9335 29.9635 66.9335C31.9806 66.9335 32.9696 66.3314 33.722 64.6302L40.0915 50.5739V66.6981H44.2062V50.6005C44.2062 49.0301 43.572 48.2706 42.2671 47.8785C39.1421 46.9102 37.0452 47.7477 36.0964 49.8416L29.8464 63.714L23.7928 49.8356C22.883 47.7417 20.747 46.9041 17.622 47.8724C16.3159 48.2652 15.683 49.0247 15.683 50.5945V66.692ZM47.6257 53.5683H51.7385V62.4522C51.7001 62.9351 51.8946 64.068 54.1482 64.1025C55.2982 64.1207 63.0226 64.1025 63.0946 64.1025V53.5241H67.2165C67.2348 53.5241 67.2123 67.9478 67.2129 68.0095C67.2354 71.5667 62.7653 72.3395 60.7056 72.3994H47.7153V69.6519L60.7287 69.6513C63.3763 69.3729 63.0641 68.0676 63.0641 67.6276V66.5565H54.3202C50.2519 66.5202 47.6617 64.7573 47.6293 62.73C47.6263 62.5484 47.7159 53.656 47.6257 53.5683Z" fill="#00618A"/>
<path d="M70.3879 66.692H82.2159C83.6001 66.692 84.9458 66.4046 86.0147 65.9065C87.7952 65.0956 88.6653 63.996 88.6653 62.5563V59.5728C88.6653 58.3945 87.6763 57.2955 85.7385 56.5627C84.7098 56.1693 83.444 55.9605 82.2177 55.9605H77.233C75.572 55.9605 74.7806 55.4631 74.583 54.3641C74.5434 54.2334 74.5434 54.122 74.5434 53.9973V52.1395C74.5434 52.0348 74.5434 51.9295 74.583 51.7988C74.7806 50.9612 75.2159 50.7252 76.6793 50.5884C76.7982 50.5884 76.9562 50.5618 77.0757 50.5618H88.8245V47.8403H77.2732C75.6117 47.8403 74.7415 47.945 73.9501 48.1804C71.4952 48.9399 70.4269 50.1503 70.4269 52.2442V54.6261C70.4269 56.4586 72.5245 58.029 76.044 58.3951C76.4403 58.4212 76.8354 58.4472 77.2306 58.4472H81.5031C81.6617 58.4472 81.8202 58.4472 81.9385 58.4738C83.2434 58.5785 83.7982 58.8139 84.1934 59.2847C84.4373 59.5268 84.5104 59.7568 84.5104 60.0109V62.3929C84.5104 62.681 84.3129 63.0477 83.9171 63.3612C83.561 63.6759 82.9678 63.8846 82.1763 63.9373C82.0178 63.9373 81.8995 63.9633 81.7415 63.9633H70.3879V66.692ZM114.329 61.9547C114.329 64.7555 116.426 66.3259 120.659 66.64C121.053 66.6703 121.449 66.6877 121.845 66.692H132.566V63.97H121.766C119.353 63.97 118.443 63.3678 118.443 61.9281V47.8458H114.329L114.329 61.9547ZM91.2897 62.0964V52.3924C91.2897 49.927 93.0336 48.4316 96.4824 47.9596C96.8502 47.9074 97.2212 47.8811 97.5928 47.8809H105.402C105.787 47.8811 106.171 47.9074 106.552 47.9596C110.001 48.4316 111.745 49.9264 111.745 52.3924V62.0964C111.745 64.0964 111.004 65.167 109.296 65.8648L113.349 69.4958H108.572L105.293 66.5583L101.993 66.7659H97.5928C96.8397 66.7659 96.047 66.6606 95.1745 66.4245C92.5525 65.7165 91.2897 64.3524 91.2897 62.0964ZM95.7306 61.8543C95.7306 61.9856 95.7702 62.1163 95.8098 62.2743C96.0537 63.4023 97.1177 64.0317 98.7367 64.0317H102.474L99.0415 60.9556H103.818L106.806 63.6383C107.358 63.3466 107.721 62.9 107.843 62.3269C107.882 62.1962 107.882 62.0649 107.882 61.9336V52.6291C107.882 52.5244 107.882 52.387 107.843 52.2617C107.599 51.213 106.534 50.6096 104.949 50.6096H98.744C96.9147 50.6096 95.7318 51.3963 95.7318 52.6291V61.8616L95.7306 61.8543Z" fill="#E48E00"/>
<path d="M136.185 43.33C133.657 43.2622 131.724 43.4952 130.073 44.1863C129.604 44.383 128.856 44.3878 128.779 44.9718C129.037 45.2399 129.078 45.6405 129.282 45.9704C129.676 46.604 130.343 47.453 130.936 47.8972C131.585 48.3832 132.253 48.9036 132.95 49.3254C134.188 50.0746 135.57 50.5025 136.761 51.2523C137.463 51.6941 138.161 52.2508 138.846 52.7507C139.185 52.9976 139.413 53.3813 139.853 53.5356V53.4642C139.621 53.1719 139.562 52.7701 139.349 52.4657L138.415 51.5379C137.5 50.3276 136.34 49.2764 135.107 48.3971C134.123 47.6963 131.921 46.7498 131.511 45.6133L131.439 45.5419C132.137 45.4632 132.953 45.2133 133.598 45.0426C134.679 44.7552 135.645 44.829 136.762 44.5434L138.273 44.1149V43.8293C137.708 43.2543 137.306 42.4936 136.69 41.9738C135.081 40.6122 133.323 39.2536 131.513 38.1189C130.51 37.4895 129.27 37.0816 128.206 36.5484C127.848 36.3693 127.219 36.2761 126.983 35.9772C126.424 35.2703 126.12 34.3735 125.689 33.5565C124.787 31.8317 123.9 29.9472 123.1 28.1323C122.554 26.8947 122.198 25.6741 121.518 24.5636C118.253 19.2357 114.738 16.0198 109.294 12.8596C108.135 12.1879 106.741 11.9216 105.267 11.5748L102.893 11.432C102.41 11.2323 101.908 10.6453 101.454 10.3609C99.6507 9.22919 95.0245 6.77037 93.6885 9.99775C92.8452 12.039 94.9489 14.0306 95.7019 15.0655C96.2299 15.7917 96.9068 16.6044 97.2836 17.4208C97.5318 17.957 97.5751 18.495 97.7873 19.0626C98.3098 20.4545 98.7647 21.9814 99.4409 23.2734C99.7824 23.927 100.159 24.6157 100.592 25.2003C100.857 25.5591 101.311 25.7171 101.382 26.2714C100.938 26.8887 100.913 27.8449 100.663 28.6267C99.5391 32.144 99.9629 36.5152 101.598 39.1186C102.099 39.9174 103.281 41.6313 104.906 40.9741C106.326 40.3991 106.003 38.6199 106.416 37.0489C106.507 36.6919 106.451 36.4316 106.632 36.1926V36.264L107.926 38.833C108.884 40.364 110.585 41.9647 112.025 43.045C112.772 43.6047 113.367 44.573 114.326 44.9004V44.829H114.254C114.067 44.5385 113.774 44.4193 113.535 44.1875C112.972 43.6398 112.346 42.959 111.881 42.3321C110.57 40.5662 109.412 38.6345 108.357 36.6223C107.854 35.6619 107.415 34.6022 106.992 33.6249C106.828 33.2478 106.83 32.6784 106.488 32.4829C106.023 33.1994 105.338 33.778 104.978 34.624C104.403 35.976 104.328 37.6244 104.115 39.3347C103.989 39.3794 104.045 39.3486 103.971 39.4061C102.97 39.1664 102.618 38.1431 102.246 37.265C101.304 35.044 101.13 31.4698 101.958 28.9148C102.171 28.254 103.141 26.171 102.749 25.5603C102.562 24.9509 101.944 24.5921 101.598 24.1321C101.171 23.5572 100.743 22.7983 100.448 22.1339C99.6769 20.4031 99.3171 18.4605 98.5062 16.7097C98.1184 15.8734 97.4635 15.0273 96.9245 14.289C96.3281 13.466 95.6604 12.8584 95.1989 11.8683C95.0342 11.5143 94.811 10.9485 95.0549 10.5836C95.0782 10.4787 95.1313 10.3827 95.2077 10.3067C95.2842 10.2308 95.381 10.1782 95.4867 10.1551C95.9037 9.83617 97.0659 10.261 97.5001 10.4407C98.6525 10.9164 99.6159 11.3691 100.593 12.0112C101.062 12.3137 101.536 12.9165 102.103 13.0823H102.749C103.761 13.3135 104.895 13.1549 105.84 13.4394C107.512 13.9435 109.01 14.7284 110.371 15.5805C114.516 18.1779 117.904 21.8755 120.223 26.292C120.596 27.0019 120.757 27.6803 121.085 28.4331C121.748 29.946 122.583 31.5152 123.243 33.0003C123.901 34.483 124.542 35.9778 125.472 37.2111C125.961 37.8586 127.85 38.2072 128.708 38.5667C129.31 38.819 130.295 39.0823 130.865 39.423C131.954 40.0748 133.009 40.8512 134.03 41.5653C134.54 41.9224 136.109 42.7049 136.187 43.3494L136.185 43.33Z" fill="#00618A"/>
<path fill-rule="evenodd" clip-rule="evenodd" d="M104.043 16.1384C103.515 16.1287 103.143 16.1953 102.748 16.2812V16.3527H102.82C103.071 16.8658 103.515 17.1957 103.826 17.6374L104.546 19.1358L104.618 19.0644C105.063 18.7528 105.267 18.2547 105.264 17.494C105.085 17.3076 105.059 17.074 104.904 16.8513C104.699 16.5548 104.296 16.3878 104.043 16.1384Z" fill="#00618A"/>
<path fill-rule="evenodd" clip-rule="evenodd" d="M134.497 63.8925C134.497 65.6899 135.928 66.9014 137.529 66.9014C139.129 66.9014 140.56 65.6899 140.56 63.8925C140.56 62.0952 139.129 60.8836 137.529 60.8836C135.928 60.8836 134.497 62.0952 134.497 63.8925ZM139.881 63.8925C139.881 65.2566 138.831 66.2757 137.528 66.2757C136.21 66.2757 135.174 65.2566 135.174 63.8925C135.174 62.5285 136.209 61.5093 137.528 61.5093C138.829 61.5093 139.881 62.5285 139.881 63.8925ZM138.345 65.61H139.023L138.029 64.1019C138.563 64.0456 138.967 63.7884 138.967 63.1627C138.967 62.4643 138.521 62.1762 137.665 62.1762H136.315V65.6106H136.897V64.1261H137.438L138.345 65.61ZM136.897 63.6432V62.6568H137.568C137.915 62.6568 138.336 62.7209 138.336 63.1227C138.336 63.6038 137.956 63.6444 137.519 63.6444L136.897 63.6432Z" fill="#E48E00"/>
<path d="M165.927 70.6403C165.927 76.0285 161.559 80.3964 156.171 80.3964C150.783 80.3964 146.415 76.0285 146.415 70.6403C146.415 65.2522 150.783 60.8842 156.171 60.8842C161.559 60.8842 165.927 65.2522 165.927 70.6403Z" fill="#FF9A00"/>
<path d="M163.844 1.59718C161.546 -0.233361 158.13 0.0959008 156.021 2.13027L155.196 2.92599L154.37 2.13027C152.265 0.0959008 148.845 -0.233361 146.547 1.59718C143.915 3.69819 143.777 7.46902 146.132 9.74642L154.244 17.5782C154.768 18.0838 155.619 18.0838 156.143 17.5782L164.254 9.74642C166.614 7.46902 166.476 3.69819 163.844 1.59718Z" fill="#FF6F6F"/>
</svg>
