<svg width="30" height="31" viewBox="0 0 30 31" fill="none" xmlns="http://www.w3.org/2000/svg">
<g clip-path="url(#clip0_151_225)">
<path d="M15.6376 16.914C15.6951 15.914 16.1851 15.0315 16.9251 14.4065C17.7015 13.7616 18.6809 13.4119 19.6901 13.419C20.7526 13.419 21.7289 13.794 22.4539 14.4065C23.1939 15.0315 23.6826 15.914 23.7389 16.9128C23.7951 17.9415 23.3826 18.8953 22.6576 19.604C21.8591 20.3667 20.7943 20.7874 19.6901 20.7765C18.5852 20.7875 17.5196 20.3668 16.7201 19.604C15.9951 18.8953 15.5814 17.9415 15.6376 16.914ZM9.18764 18.9353C9.19514 19.3278 9.32014 20.0878 9.50764 20.6828C9.91242 21.9629 10.592 23.1391 11.4989 24.129C12.4715 25.1984 13.6585 26.0506 14.9826 26.6303C16.4237 27.2655 17.9828 27.5893 19.5576 27.5803C21.1323 27.5834 22.6899 27.2546 24.1289 26.6153C25.4521 26.0301 26.638 25.1743 27.6101 24.1028C28.5155 23.1095 29.1945 21.9316 29.6001 20.6503C29.9902 19.4089 30.097 18.0959 29.9126 16.8078C29.7371 15.5737 29.3045 14.3903 28.6426 13.334C28.0295 12.3515 27.2455 11.4866 26.3276 10.7803H26.3301L16.9576 3.58404L16.9326 3.56529C16.3176 3.09279 15.2839 3.09529 14.6076 3.56779C13.9239 4.04529 13.8464 4.83654 14.4539 5.33654L14.4526 5.33779L18.3601 8.51654L6.44764 8.52904H6.43139C5.44639 8.53029 4.50014 9.17654 4.31264 9.99404C4.12014 10.8253 4.78764 11.5153 5.81264 11.519V11.5215L11.8501 11.509L1.07514 19.7803L1.03264 19.8115C0.0163917 20.589 -0.311108 21.884 0.328892 22.7028C0.978892 23.5365 2.36014 23.5378 3.38764 22.7078L9.26764 17.8965C9.26764 17.8965 9.18014 18.5465 9.18764 18.9353ZM24.3001 21.1115C23.0876 22.3465 21.3926 23.0465 19.5564 23.049C17.7189 23.054 16.0226 22.359 14.8101 21.1265C14.2376 20.5518 13.7959 19.8602 13.5151 19.099C13.2578 18.3829 13.1562 17.6202 13.217 16.8616C13.2778 16.1031 13.4996 15.3663 13.8676 14.7003C14.2338 14.042 14.7231 13.4601 15.3089 12.9865C16.4864 12.0265 17.9851 11.5078 19.5539 11.5053C21.1239 11.5028 22.6226 12.0178 23.8014 12.974C24.4014 13.4628 24.8889 14.0415 25.2414 14.6828C25.6063 15.3399 25.8286 16.0665 25.8939 16.8153C25.9601 17.5826 25.8582 18.3552 25.5951 19.079C25.3143 19.8413 24.8719 20.5344 24.3001 21.1115Z" fill="#E87D0D"/>
</g>
<defs>
<clipPath id="clip0_151_225">
<rect width="30" height="30" fill="white" transform="translate(0 0.396484)"/>
</clipPath>
</defs>
</svg>
