<svg width="30" height="31" viewBox="0 0 30 31" fill="none" xmlns="http://www.w3.org/2000/svg">
<path fill-rule="evenodd" clip-rule="evenodd" d="M15 15.3964C15 12.635 17.2386 10.3964 20 10.3964C22.7615 10.3964 25 12.635 25 15.3964C25 18.1579 22.7615 20.3964 20 20.3964C17.2386 20.3964 15 18.1579 15 15.3964Z" fill="#1ABCFE"/>
<path fill-rule="evenodd" clip-rule="evenodd" d="M5 25.3964C5 22.635 7.23858 20.3964 10 20.3964H15V25.3964C15 28.1579 12.7614 30.3964 10 30.3964C7.23858 30.3964 5 28.1579 5 25.3964Z" fill="#0ACF83"/>
<path fill-rule="evenodd" clip-rule="evenodd" d="M15 0.396423V10.3964H20C22.7615 10.3964 25 8.15785 25 5.39642C25 2.635 22.7615 0.396423 20 0.396423H15Z" fill="#FF7262"/>
<path fill-rule="evenodd" clip-rule="evenodd" d="M5 5.39642C5 8.15785 7.23858 10.3964 10 10.3964H15V0.396423H10C7.23858 0.396423 5 2.635 5 5.39642Z" fill="#F24E1E"/>
<path fill-rule="evenodd" clip-rule="evenodd" d="M5 15.3964C5 18.1579 7.23858 20.3964 10 20.3964H15V10.3964H10C7.23858 10.3964 5 12.635 5 15.3964Z" fill="#A259FF"/>
</svg>
