<svg width="30" height="31" viewBox="0 0 30 31" fill="none" xmlns="http://www.w3.org/2000/svg">
<g clip-path="url(#clip0_151_264)">
<path d="M13.1625 13.809C13.0375 13.4215 12.925 13.0465 12.8 12.659C12.675 12.2715 12.5625 11.909 12.4625 11.5465C12.3625 11.1965 12.275 10.8715 12.1875 10.5715H12.1625C12.05 11.109 11.9125 11.6465 11.7375 12.184C11.55 12.784 11.3625 13.409 11.1625 14.034C10.9875 14.6715 10.8 15.259 10.6125 15.784H13.7875C13.7125 15.5202 13.6125 15.209 13.5 14.8827C13.3875 14.5465 13.275 14.184 13.1625 13.809ZM24.6875 0.771484H5.3125C2.375 0.771484 0 3.14649 0 6.08399V24.709C0 27.6465 2.375 30.0215 5.3125 30.0215H24.6875C27.625 30.0215 30 27.6465 30 24.709V6.08399C30 3.14649 27.625 0.771484 24.6875 0.771484ZM18.375 21.434H15.7613C15.675 21.4465 15.5875 21.384 15.5625 21.2965L14.5375 18.3215H9.8875L8.9375 21.259C8.9125 21.3715 8.8125 21.4465 8.7 21.4352H6.35C6.2125 21.4352 6.175 21.359 6.2125 21.2102L10.2375 9.62149C10.275 9.49649 10.3125 9.35899 10.3625 9.20899C10.4125 8.94649 10.4375 8.67149 10.4375 8.39649C10.425 8.33399 10.475 8.27149 10.5375 8.25899H13.775C13.875 8.25899 13.925 8.29649 13.9375 8.35899L18.5 21.234C18.5375 21.3702 18.5 21.434 18.375 21.434ZM22.625 21.2465C22.625 21.384 22.5763 21.4465 22.4638 21.4465H20.0125C19.8875 21.4465 19.825 21.3702 19.825 21.2465V11.6215C19.825 11.4965 19.8762 11.4465 19.9888 11.4465H22.4638C22.5763 11.4465 22.625 11.509 22.625 11.6215V21.2465ZM22.3638 9.95899C22.075 10.259 21.65 10.4215 21.225 10.3965C20.8125 10.409 20.4125 10.2465 20.1113 9.95899C19.8238 9.64649 19.6737 9.23399 19.6862 8.80899C19.6737 8.38399 19.8363 7.98399 20.135 7.69649C20.4375 7.40899 20.8375 7.25899 21.25 7.25899C21.7388 7.25899 22.1112 7.40899 22.3875 7.69649C22.6625 7.99649 22.8125 8.39649 22.8 8.80899C22.8125 9.23399 22.6625 9.64649 22.3638 9.95899Z" fill="#FF9A00"/>
</g>
<defs>
<clipPath id="clip0_151_264">
<rect width="30" height="30" fill="white" transform="translate(0 0.396484)"/>
</clipPath>
</defs>
</svg>
