<svg width="30" height="31" viewBox="0 0 30 31" fill="none" xmlns="http://www.w3.org/2000/svg">
<g clip-path="url(#clip0_151_266)">
<path d="M5.3125 0.771484C2.375 0.771484 0 3.14649 0 6.08399V24.709C0 27.6465 2.375 30.0215 5.3125 30.0215H24.6875C27.625 30.0215 30 27.6465 30 24.709V6.08399C30 3.14649 27.625 0.771484 24.6875 0.771484H5.3125ZM19.45 7.18399H21.9875C22.05 7.17149 22.1 7.22149 22.1125 7.27149V19.1965C22.1125 19.4215 22.125 19.6715 22.1375 19.9465C22.1625 20.209 22.175 20.459 22.1875 20.6715C22.1875 20.759 22.15 20.834 22.0625 20.8715C21.4125 21.1465 20.725 21.3465 20.025 21.4715C19.4 21.584 18.75 21.6465 18.1 21.6465C17.175 21.659 16.25 21.4715 15.4125 21.084C14.625 20.7215 13.975 20.1215 13.525 19.384C13.0625 18.6215 12.8375 17.6715 12.8375 16.534C12.825 15.609 13.0625 14.6965 13.525 13.8965C14 13.084 14.6875 12.409 15.5125 11.959C16.3875 11.4715 17.4375 11.234 18.675 11.234C18.7375 11.234 18.825 11.234 18.9375 11.2465C19.05 11.259 19.175 11.259 19.325 11.2715V7.32149C19.325 7.23399 19.3625 7.18399 19.45 7.18399ZM8.2875 8.25899H10.725C10.8 8.24649 10.875 8.29649 10.8875 8.38399C10.9 8.39649 10.9 8.40899 10.9 8.42149V21.2465C10.9 21.384 10.8375 21.4465 10.725 21.4465H8.275C8.1625 21.4465 8.1125 21.384 8.1125 21.2465V8.42149C8.1125 8.30899 8.175 8.25899 8.2875 8.25899ZM18.575 13.559C18.0875 13.559 17.6 13.659 17.1625 13.884C16.7375 14.0965 16.375 14.409 16.1 14.809C15.825 15.209 15.6875 15.7465 15.6875 16.3965C15.675 16.834 15.75 17.2715 15.9 17.684C16.025 18.0215 16.2125 18.3215 16.4625 18.5715C16.7 18.7965 16.9875 18.9715 17.3125 19.0715C17.65 19.184 18 19.234 18.35 19.234C18.5375 19.234 18.7125 19.2215 18.875 19.209C19.0375 19.2215 19.1875 19.1965 19.325 19.1465V13.6465C19.2125 13.6215 19.1 13.5965 18.9875 13.584C18.85 13.5715 18.7125 13.559 18.575 13.559Z" fill="#FF3366"/>
</g>
<defs>
<clipPath id="clip0_151_266">
<rect width="30" height="30" fill="white" transform="translate(0 0.396484)"/>
</clipPath>
</defs>
</svg>
