<svg width="30" height="31" viewBox="0 0 30 31" fill="none" xmlns="http://www.w3.org/2000/svg">
<g clip-path="url(#clip0_145_103)">
<path d="M0 0.396423H30V30.3964H0V0.396423ZM27.5425 23.2414C27.3238 21.8727 26.4325 20.7227 23.7887 19.6502C22.8687 19.2189 21.8462 18.9189 21.5425 18.2252C21.4287 17.8127 21.4112 17.5877 21.485 17.3439C21.6725 16.5364 22.6287 16.2939 23.3787 16.5189C23.8662 16.6689 24.3163 17.0439 24.5988 17.6439C25.8913 16.7989 25.8913 16.7989 26.7925 16.2377C26.455 15.7127 26.2875 15.4864 26.06 15.2627C25.2725 14.3814 24.2237 13.9314 22.5175 13.9702L21.6362 14.0814C20.7913 14.2877 19.9862 14.7377 19.4988 15.3377C18.0737 16.9514 18.485 19.7639 20.21 20.9264C21.9162 22.2014 24.4113 22.4814 24.73 23.6827C25.03 25.1452 23.6425 25.6139 22.2725 25.4452C21.2588 25.2202 20.6975 24.7127 20.0788 23.7752L17.7913 25.0889C18.0537 25.6889 18.3538 25.9502 18.8038 26.4752C20.9788 28.6702 26.4163 28.5577 27.3925 25.2202C27.4287 25.1077 27.6925 24.3389 27.485 23.1577L27.5425 23.2414ZM16.3137 14.1852H13.5038C13.5038 16.6077 13.4925 19.0152 13.4925 21.4414C13.4925 22.9814 13.5712 24.3952 13.32 24.8302C12.9075 25.6914 11.845 25.5814 11.3625 25.4302C10.8675 25.1852 10.6163 24.8477 10.325 24.3614C10.2463 24.2302 10.1875 24.1164 10.1663 24.1164L7.885 25.5227C8.26625 26.3102 8.8225 26.9877 9.54 27.4189C10.6088 28.0564 12.045 28.2627 13.5487 27.9252C14.5275 27.6427 15.3712 27.0614 15.8125 26.1614C16.45 24.9989 16.315 23.5739 16.3088 21.9789C16.3237 19.4114 16.3088 16.8427 16.3088 14.2552L16.3137 14.1852Z" fill="#F7DF1E"/>
</g>
<defs>
<clipPath id="clip0_145_103">
<rect width="30" height="30" fill="white" transform="translate(0 0.396423)"/>
</clipPath>
</defs>
</svg>
