<svg width="30" height="31" viewBox="0 0 30 31" fill="none" xmlns="http://www.w3.org/2000/svg">
<g clip-path="url(#clip0_151_262)">
<path d="M12.3125 10.9215C11.85 10.734 11.35 10.659 10.8375 10.6715C10.5125 10.6715 10.225 10.6715 9.9875 10.684C9.7375 10.6715 9.5625 10.684 9.475 10.6965V14.8965C9.65 14.909 9.8125 14.9215 9.9625 14.9215H10.625C11.1125 14.9215 11.6 14.8465 12.0625 14.6965C12.4625 14.584 12.8125 14.3465 13.0875 14.034C13.35 13.7215 13.475 13.2965 13.475 12.7465C13.4875 12.359 13.3875 11.9715 13.1875 11.634C12.975 11.309 12.675 11.059 12.3125 10.9215ZM24.6875 0.771484H5.3125C2.375 0.771484 0 3.14648 0 6.08399V24.7077C0 27.6452 2.375 30.0202 5.3125 30.0202H24.6875C27.625 30.0202 30 27.6452 30 24.7077V6.08399C30 3.14648 27.625 0.771484 24.6875 0.771484ZM15.4488 15.334C14.95 16.034 14.25 16.559 13.4375 16.859C12.5875 17.1715 11.65 17.284 10.625 17.284C10.325 17.284 10.125 17.284 10 17.2715C9.875 17.259 9.7 17.259 9.4625 17.259V21.2702C9.475 21.3577 9.4125 21.434 9.325 21.4465H6.9C6.8 21.4465 6.75 21.3952 6.75 21.2827V8.42149C6.75 8.33399 6.7875 8.28399 6.875 8.28399C7.0875 8.28399 7.2875 8.28399 7.575 8.27149C7.875 8.25899 8.1875 8.25899 8.525 8.24649C8.8625 8.23399 9.225 8.23399 9.6125 8.22149C10 8.20899 10.375 8.20899 10.75 8.20899C11.775 8.20899 12.625 8.33399 13.325 8.59649C13.95 8.80899 14.525 9.15899 15 9.62149C15.4 10.0215 15.7125 10.509 15.9125 11.0465C16.0987 11.5715 16.1987 12.109 16.1987 12.6715C16.2 13.7465 15.95 14.634 15.4488 15.334ZM24.3125 20.1965C23.9625 20.6965 23.4737 21.0827 22.9125 21.3102C22.3 21.5715 21.55 21.7077 20.6487 21.7077C20.075 21.7077 19.5112 21.659 18.95 21.5465C18.5125 21.4702 18.075 21.334 17.675 21.1465C17.5875 21.0977 17.5238 21.0102 17.5363 20.9102V18.7352C17.5363 18.699 17.55 18.6477 17.5875 18.6227C17.6237 18.5977 17.6625 18.6102 17.7 18.6352C18.1875 18.9227 18.7 19.124 19.25 19.2477C19.7237 19.3727 20.2237 19.4352 20.725 19.4352C21.2 19.4352 21.5375 19.3715 21.7625 19.259C21.9625 19.1715 22.1 18.959 22.1 18.734C22.1 18.5577 22 18.3965 21.8 18.234C21.6 18.0727 21.1888 17.8852 20.5763 17.6452C19.9388 17.4202 19.3525 17.1202 18.8013 16.7465C18.4137 16.4702 18.09 16.109 17.85 15.684C17.6512 15.284 17.5513 14.8465 17.5637 14.4077C17.5637 13.8702 17.7138 13.3577 17.99 12.8952C18.3025 12.3952 18.7638 11.9952 19.3013 11.7452C19.8875 11.4465 20.625 11.309 21.5125 11.309C22.025 11.309 22.55 11.3465 23.0625 11.4215C23.4375 11.4715 23.8 11.5715 24.1375 11.709C24.1862 11.7215 24.2375 11.7715 24.2625 11.8215C24.275 11.8715 24.2875 11.9215 24.2875 11.9715V14.009C24.2875 14.059 24.2625 14.109 24.225 14.134C24.1125 14.159 24.05 14.159 24 14.134C23.625 13.934 23.225 13.7965 22.8 13.709C22.3375 13.609 21.875 13.5465 21.4 13.5465C21.15 13.534 20.8875 13.5715 20.6487 13.634C20.4875 13.6715 20.3487 13.759 20.2612 13.884C20.1987 13.984 20.1612 14.109 20.1612 14.2215C20.1612 14.334 20.2113 14.4465 20.2875 14.5465C20.4 14.684 20.5487 14.7965 20.7125 14.884C20.9987 15.034 21.3 15.1715 21.5987 15.2965C22.275 15.5215 22.925 15.834 23.525 16.209C23.9375 16.4702 24.275 16.8215 24.5112 17.2465C24.7112 17.644 24.8113 18.084 24.7988 18.5327C24.8125 19.1215 24.6375 19.7077 24.3125 20.1965Z" fill="#31A8FF"/>
</g>
<defs>
<clipPath id="clip0_151_262">
<rect width="30" height="30" fill="white" transform="translate(0 0.396484)"/>
</clipPath>
</defs>
</svg>
