<svg width="30" height="31" viewBox="0 0 30 31" fill="none" xmlns="http://www.w3.org/2000/svg">
<g clip-path="url(#clip0_151_60)">
<path d="M12.6875 10.9215C12.2183 10.7375 11.7161 10.6524 11.2125 10.6715C10.7582 10.662 10.3037 10.6703 9.85 10.6965V14.8965L10.3375 14.9215H11C11.4875 14.9215 11.975 14.8465 12.4375 14.6965C12.8375 14.584 13.1875 14.3465 13.4625 14.034C13.725 13.7215 13.85 13.2965 13.85 12.7465C13.8782 12.3577 13.7804 11.9702 13.571 11.6415C13.3616 11.3127 13.0517 11.0602 12.6875 10.9215ZM24.6875 0.771484H5.3125C3.90354 0.771484 2.55228 1.33119 1.556 2.32748C0.559708 3.32377 0 4.67502 0 6.08398L0 24.709C0 27.6465 2.375 30.0215 5.3125 30.0215H24.6875C27.625 30.0215 30 27.6465 30 24.709V6.08398C30 3.14648 27.625 0.771484 24.6875 0.771484ZM15.825 15.334C15.325 16.034 14.625 16.559 13.8125 16.859C12.9625 17.1715 12.025 17.284 11 17.284L10.375 17.2715L9.8375 17.259V21.2715C9.84105 21.2922 9.84022 21.3133 9.83507 21.3337C9.82992 21.354 9.82056 21.373 9.80761 21.3895C9.79465 21.406 9.77838 21.4196 9.75984 21.4294C9.74131 21.4392 9.72092 21.445 9.7 21.4465H7.275C7.175 21.4465 7.125 21.3965 7.125 21.284V8.42148C7.125 8.33398 7.1625 8.28398 7.25 8.28398L7.95 8.27148L8.9 8.24648L9.9875 8.22148L11.125 8.20898C12.15 8.20898 13 8.33398 13.7 8.59648C14.325 8.80898 14.9 9.15898 15.375 9.62148C15.775 10.0215 16.0875 10.509 16.2875 11.0465C16.475 11.5715 16.575 12.109 16.575 12.6715C16.575 13.7465 16.325 14.634 15.825 15.334ZM24.35 11.3965V13.834C24.35 13.934 24.2875 13.9715 24.15 13.9715C23.3253 13.9415 22.5045 14.0997 21.75 14.434C21.5125 14.5465 21.2875 14.6965 21.1125 14.8965V21.2715C21.1125 21.3965 21.0625 21.4465 20.95 21.4465H18.4875C18.4645 21.45 18.441 21.4489 18.4184 21.4432C18.3958 21.4376 18.3746 21.4275 18.356 21.4135C18.3374 21.3995 18.3217 21.382 18.3099 21.3619C18.2982 21.3418 18.2906 21.3196 18.2875 21.2965V14.3215L18.275 13.384L18.25 12.409C18.25 12.1215 18.225 11.8465 18.2 11.559C18.1957 11.5294 18.2022 11.4992 18.2183 11.474C18.2343 11.4488 18.2589 11.4301 18.2875 11.4215H20.5125C20.6375 11.4215 20.7375 11.509 20.7625 11.6215C20.8755 11.9942 20.9303 12.3821 20.925 12.7715C21.3 12.334 21.7625 11.9715 22.275 11.6965C22.856 11.3737 23.5103 11.2058 24.175 11.209C24.2625 11.1965 24.3375 11.259 24.35 11.3465V11.3965Z" fill="#9999FF"/>
</g>
<defs>
<clipPath id="clip0_151_60">
<rect width="30" height="30" fill="white" transform="translate(0 0.396484)"/>
</clipPath>
</defs>
</svg>
