<svg width="30" height="31" viewBox="0 0 30 31" fill="none" xmlns="http://www.w3.org/2000/svg">
<g clip-path="url(#clip0_145_587)">
<path d="M26.8363 8.92773C27.8862 10.849 28.4838 13.0527 28.4838 15.3965C28.4838 20.3702 25.7887 24.7165 21.78 27.0527L25.8988 15.144C26.6675 13.219 26.9237 11.6802 26.9237 10.314C26.9237 9.80773 26.8913 9.34023 26.8363 8.92773ZM16.86 9.05773C17.6688 9.02023 18.4 8.92648 18.4 8.92648C19.1275 8.83273 19.0425 7.76398 18.3162 7.80273C18.3162 7.80273 16.1225 7.97148 14.7162 7.97148C13.3862 7.97148 11.1538 7.78398 11.1538 7.78398C10.4225 7.74648 10.3275 8.85273 11.06 8.89023C11.06 8.89023 11.735 8.96649 12.4662 9.00274L14.5662 14.759L11.6038 23.609L6.6925 9.02148C7.50375 8.98398 8.235 8.89648 8.235 8.89648C8.96625 8.80273 8.88 7.73398 8.15375 7.77648C8.15375 7.77648 5.97125 7.94898 4.56125 7.94898C4.31125 7.94898 4.01375 7.93898 3.69875 7.93023C6.13875 4.33398 10.2937 1.91523 15 1.91523C18.5112 1.91523 21.7062 3.25523 24.1075 5.45648C24.05 5.45273 23.9938 5.44523 23.9313 5.44523C22.6063 5.44523 21.6663 6.59898 21.6663 7.83773C21.6663 8.95023 22.3075 9.89148 22.9912 11.0015C23.505 11.9015 24.1038 13.0552 24.1038 14.7227C24.1038 15.8665 23.6612 17.2152 23.0775 19.0715L21.7337 23.5527L16.8588 9.04023L16.86 9.05773ZM15 28.8765C13.6763 28.8765 12.3987 28.6852 11.19 28.3302L15.2362 16.5727L19.38 27.9315C19.41 27.9977 19.4425 28.0577 19.4775 28.1177C18.0775 28.609 16.5713 28.879 15 28.879M1.51375 15.3965C1.51375 13.4415 1.93375 11.584 2.6825 9.90898L9.1125 27.5327C4.6175 25.3465 1.515 20.7352 1.51375 15.3965ZM15 0.396484C6.73125 0.396484 0 7.12773 0 15.3965C0 23.6652 6.73125 30.3965 15 30.3965C23.2687 30.3965 30 23.6652 30 15.3965C30 7.12773 23.2687 0.396484 15 0.396484Z" fill="#21759B"/>
</g>
<defs>
<clipPath id="clip0_145_587">
<rect width="30" height="30" fill="white" transform="translate(0 0.396484)"/>
</clipPath>
</defs>
</svg>
