<svg width="25" height="23" viewBox="0 0 25 23" fill="none" xmlns="http://www.w3.org/2000/svg">
<path d="M12.4998 18.2714C14.0623 18.2714 15.3904 17.7245 16.4841 16.6308C17.5779 15.537 18.1248 14.2089 18.1248 12.6464C18.1248 11.0839 17.5779 9.7558 16.4841 8.66205C15.3904 7.5683 14.0623 7.02142 12.4998 7.02142C10.9373 7.02142 9.60913 7.5683 8.51538 8.66205C7.42163 9.7558 6.87476 11.0839 6.87476 12.6464C6.87476 14.2089 7.42163 15.537 8.51538 16.6308C9.60913 17.7245 10.9373 18.2714 12.4998 18.2714ZM12.4998 15.7714C11.6248 15.7714 10.8852 15.4693 10.281 14.8652C9.67684 14.261 9.37476 13.5214 9.37476 12.6464C9.37476 11.7714 9.67684 11.0318 10.281 10.4277C10.8852 9.82351 11.6248 9.52142 12.4998 9.52142C13.3748 9.52142 14.1143 9.82351 14.7185 10.4277C15.3227 11.0318 15.6248 11.7714 15.6248 12.6464C15.6248 13.5214 15.3227 14.261 14.7185 14.8652C14.1143 15.4693 13.3748 15.7714 12.4998 15.7714ZM2.49976 22.6464C1.81226 22.6464 1.22371 22.4016 0.734131 21.912C0.244548 21.4225 -0.000244141 20.8339 -0.000244141 20.1464V5.14642C-0.000244141 4.45892 0.244548 3.87038 0.734131 3.3808C1.22371 2.89122 1.81226 2.64642 2.49976 2.64642H6.43726L8.74976 0.146423H16.2498L18.5623 2.64642H22.4998C23.1873 2.64642 23.7758 2.89122 24.2654 3.3808C24.755 3.87038 24.9998 4.45892 24.9998 5.14642V20.1464C24.9998 20.8339 24.755 21.4225 24.2654 21.912C23.7758 22.4016 23.1873 22.6464 22.4998 22.6464H2.49976ZM2.49976 20.1464H22.4998V5.14642H17.4373L15.156 2.64642H9.84351L7.56226 5.14642H2.49976V20.1464Z" fill="white"/>
</svg>
