<svg width="29" height="21" viewBox="0 0 29 21" fill="none" xmlns="http://www.w3.org/2000/svg">
<path d="M5.40649 20.3965C4.15649 20.3965 3.08879 19.9485 2.20337 19.0527C1.31795 18.1569 0.854411 17.0735 0.812744 15.8027C0.812744 15.6152 0.823161 15.4277 0.843994 15.2402C0.864827 15.0527 0.896077 14.8652 0.937744 14.6777L3.56274 4.1777C3.85441 3.0527 4.44816 2.14125 5.34399 1.44333C6.23983 0.745412 7.26066 0.396454 8.40649 0.396454H20.594C21.7398 0.396454 22.7607 0.745412 23.6565 1.44333C24.5523 2.14125 25.1461 3.0527 25.4377 4.1777L28.0627 14.6777C28.1044 14.8652 28.1409 15.0579 28.1721 15.2558C28.2034 15.4537 28.219 15.6465 28.219 15.834C28.219 17.1048 27.7659 18.1829 26.8596 19.0683C25.9534 19.9537 24.8648 20.3965 23.594 20.3965C22.719 20.3965 21.9065 20.1673 21.1565 19.709C20.4065 19.2506 19.844 18.6256 19.469 17.834L18.594 16.0215C18.4898 15.8131 18.3336 15.6569 18.1252 15.5527C17.9169 15.4485 17.6982 15.3965 17.469 15.3965H11.5315C11.3023 15.3965 11.0836 15.4485 10.8752 15.5527C10.6669 15.6569 10.5107 15.8131 10.4065 16.0215L9.53149 17.834C9.15649 18.6256 8.59399 19.2506 7.84399 19.709C7.09399 20.1673 6.28149 20.3965 5.40649 20.3965ZM5.50024 17.8965C5.89608 17.8965 6.25545 17.7923 6.57837 17.584C6.90128 17.3756 7.14608 17.0944 7.31274 16.7402L8.18774 14.959C8.50024 14.3131 8.95858 13.8079 9.56274 13.4433C10.1669 13.0787 10.8232 12.8965 11.5315 12.8965H17.469C18.1773 12.8965 18.8336 13.084 19.4377 13.459C20.0419 13.834 20.5107 14.334 20.844 14.959L21.719 16.7402C21.8857 17.0944 22.1304 17.3756 22.4534 17.584C22.7763 17.7923 23.1357 17.8965 23.5315 17.8965C24.1148 17.8965 24.6148 17.7037 25.0315 17.3183C25.4482 16.9329 25.6669 16.4485 25.6877 15.8652C25.6877 15.886 25.6669 15.6881 25.6252 15.2715L23.0002 4.8027C22.8544 4.2402 22.5627 3.78187 22.1252 3.4277C21.6877 3.07354 21.1773 2.89645 20.594 2.89645H8.40649C7.82316 2.89645 7.30753 3.07354 6.85962 3.4277C6.4117 3.78187 6.12524 4.2402 6.00024 4.8027L3.37524 15.2715C3.33358 15.3965 3.31274 15.584 3.31274 15.834C3.31274 16.4173 3.52629 16.9069 3.95337 17.3027C4.38045 17.6985 4.89608 17.8965 5.50024 17.8965ZM16.3752 9.14645C16.7294 9.14645 17.0263 9.02666 17.2659 8.78708C17.5054 8.54749 17.6252 8.25062 17.6252 7.89645C17.6252 7.54229 17.5054 7.24541 17.2659 7.00583C17.0263 6.76624 16.7294 6.64645 16.3752 6.64645C16.0211 6.64645 15.7242 6.76624 15.4846 7.00583C15.245 7.24541 15.1252 7.54229 15.1252 7.89645C15.1252 8.25062 15.245 8.54749 15.4846 8.78708C15.7242 9.02666 16.0211 9.14645 16.3752 9.14645ZM18.8752 6.64645C19.2294 6.64645 19.5263 6.52666 19.7659 6.28708C20.0054 6.04749 20.1252 5.75062 20.1252 5.39645C20.1252 5.04229 20.0054 4.74541 19.7659 4.50583C19.5263 4.26624 19.2294 4.14645 18.8752 4.14645C18.5211 4.14645 18.2242 4.26624 17.9846 4.50583C17.745 4.74541 17.6252 5.04229 17.6252 5.39645C17.6252 5.75062 17.745 6.04749 17.9846 6.28708C18.2242 6.52666 18.5211 6.64645 18.8752 6.64645ZM18.8752 11.6465C19.2294 11.6465 19.5263 11.5267 19.7659 11.2871C20.0054 11.0475 20.1252 10.7506 20.1252 10.3965C20.1252 10.0423 20.0054 9.74541 19.7659 9.50583C19.5263 9.26624 19.2294 9.14645 18.8752 9.14645C18.5211 9.14645 18.2242 9.26624 17.9846 9.50583C17.745 9.74541 17.6252 10.0423 17.6252 10.3965C17.6252 10.7506 17.745 11.0475 17.9846 11.2871C18.2242 11.5267 18.5211 11.6465 18.8752 11.6465ZM21.3752 9.14645C21.7294 9.14645 22.0263 9.02666 22.2659 8.78708C22.5054 8.54749 22.6252 8.25062 22.6252 7.89645C22.6252 7.54229 22.5054 7.24541 22.2659 7.00583C22.0263 6.76624 21.7294 6.64645 21.3752 6.64645C21.0211 6.64645 20.7242 6.76624 20.4846 7.00583C20.245 7.24541 20.1252 7.54229 20.1252 7.89645C20.1252 8.25062 20.245 8.54749 20.4846 8.78708C20.7242 9.02666 21.0211 9.14645 21.3752 9.14645ZM10.1252 11.0215C10.3961 11.0215 10.62 10.9329 10.7971 10.7558C10.9742 10.5787 11.0627 10.3548 11.0627 10.084V8.83395H12.3127C12.5836 8.83395 12.8075 8.74541 12.9846 8.56833C13.1617 8.39124 13.2502 8.16729 13.2502 7.89645C13.2502 7.62562 13.1617 7.40166 12.9846 7.22458C12.8075 7.04749 12.5836 6.95895 12.3127 6.95895H11.0627V5.70895C11.0627 5.43812 10.9742 5.21416 10.7971 5.03708C10.62 4.85999 10.3961 4.77145 10.1252 4.77145C9.85441 4.77145 9.63045 4.85999 9.45337 5.03708C9.27628 5.21416 9.18774 5.43812 9.18774 5.70895V6.95895H7.93774C7.66691 6.95895 7.44295 7.04749 7.26587 7.22458C7.08878 7.40166 7.00024 7.62562 7.00024 7.89645C7.00024 8.16729 7.08878 8.39124 7.26587 8.56833C7.44295 8.74541 7.66691 8.83395 7.93774 8.83395H9.18774V10.084C9.18774 10.3548 9.27628 10.5787 9.45337 10.7558C9.63045 10.9329 9.85441 11.0215 10.1252 11.0215Z" fill="white"/>
</svg>
