<svg width="17" height="30" viewBox="0 0 17 30" fill="none" xmlns="http://www.w3.org/2000/svg">
<path d="M4.99988 29.2714L2.81238 28.0214L6.56237 21.5214L4.43738 20.2714L2.56238 23.5214L0.374878 22.2714L6.81237 11.1464C6.02071 10.3339 5.42696 9.40686 5.03113 8.36519C4.63529 7.32352 4.43738 6.25061 4.43738 5.14644C4.43738 4.39644 4.53113 3.65165 4.71863 2.91206C4.90613 2.17248 5.20821 1.45894 5.62488 0.771439L7.74987 2.02144C7.45821 2.50061 7.24987 2.9954 7.12487 3.50581C6.99987 4.01623 6.93737 4.54227 6.93737 5.08394C6.93737 6.18811 7.20821 7.22456 7.74987 8.19331C8.29154 9.16206 9.06237 9.93811 10.0624 10.5214L12.8749 12.1464C14.1665 12.8964 15.1145 13.9746 15.7186 15.3808C16.3228 16.7871 16.6249 18.1048 16.6249 19.3339C16.6249 20.1256 16.5207 20.8964 16.3124 21.6464C16.104 22.3964 15.8124 23.1048 15.4374 23.7714L13.2499 22.5214C13.5415 22.0214 13.7499 21.511 13.8749 20.9902C13.9999 20.4694 14.0624 19.9381 14.0624 19.3964C14.0624 18.7298 13.9686 18.0839 13.7811 17.4589C13.5936 16.8339 13.2915 16.2506 12.8749 15.7089L4.99988 29.2714ZM13.4999 10.6464C12.8124 10.6464 12.2238 10.4016 11.7342 9.91206C11.2447 9.42248 10.9999 8.83394 10.9999 8.14644C10.9999 7.45894 11.2447 6.8704 11.7342 6.38081C12.2238 5.89123 12.8124 5.64644 13.4999 5.64644C14.1874 5.64644 14.7759 5.89123 15.2655 6.38081C15.7551 6.8704 15.9999 7.45894 15.9999 8.14644C15.9999 8.83394 15.7551 9.42248 15.2655 9.91206C14.7759 10.4016 14.1874 10.6464 13.4999 10.6464ZM10.3749 4.39644C9.83321 4.39644 9.38529 4.20894 9.03112 3.83394C8.67696 3.45894 8.49987 3.02144 8.49987 2.52144C8.49987 1.97977 8.68737 1.53186 9.06237 1.17769C9.43737 0.823522 9.87487 0.646439 10.3749 0.646439C10.9165 0.646439 11.3645 0.833939 11.7186 1.20894C12.0728 1.58394 12.2499 2.02144 12.2499 2.52144C12.2499 3.06311 12.0624 3.51102 11.6874 3.86519C11.3124 4.21936 10.8749 4.39644 10.3749 4.39644Z" fill="white"/>
</svg>
