<svg width="18" height="18" viewBox="0 0 18 18" fill="none" xmlns="http://www.w3.org/2000/svg">
<path d="M4.16719 17.5H0.539062V5.81641H4.16719V17.5ZM2.35117 4.22266C1.19102 4.22266 0.25 3.26172 0.25 2.10157C0.25 1.5443 0.471373 1.00986 0.865419 0.615816C1.25947 0.22177 1.79391 0.000396729 2.35117 0.000396729C2.90844 0.000396729 3.44288 0.22177 3.83692 0.615816C4.23097 1.00986 4.45234 1.5443 4.45234 2.10157C4.45234 3.26172 3.51094 4.22266 2.35117 4.22266ZM17.7461 17.5H14.1258V11.8125C14.1258 10.457 14.0984 8.71876 12.2395 8.71876C10.3531 8.71876 10.0641 10.1914 10.0641 11.7148V17.5H6.43984V5.81641H9.91953V7.41016H9.97031C10.4547 6.49219 11.6379 5.52344 13.4031 5.52344C17.075 5.52344 17.75 7.94141 17.75 11.082V17.5H17.7461Z" fill="#4C4C6D"/>
</svg>
