<svg width="11" height="14" viewBox="0 0 11 14" fill="none" xmlns="http://www.w3.org/2000/svg">
<path d="M5.50002 6.8964C5.86669 6.8964 6.18058 6.76585 6.44169 6.50474C6.7028 6.24362 6.83335 5.92974 6.83335 5.56307C6.83335 5.1964 6.7028 4.88251 6.44169 4.6214C6.18058 4.36029 5.86669 4.22974 5.50002 4.22974C5.13335 4.22974 4.81947 4.36029 4.55835 4.6214C4.29724 4.88251 4.16669 5.1964 4.16669 5.56307C4.16669 5.92974 4.29724 6.24362 4.55835 6.50474C4.81947 6.76585 5.13335 6.8964 5.50002 6.8964ZM5.50002 11.7964C6.85558 10.552 7.86113 9.4214 8.51669 8.40473C9.17224 7.38807 9.50002 6.48529 9.50002 5.6964C9.50002 4.48529 9.11391 3.49362 8.34169 2.7214C7.56947 1.94918 6.62224 1.56307 5.50002 1.56307C4.3778 1.56307 3.43058 1.94918 2.65835 2.7214C1.88613 3.49362 1.50002 4.48529 1.50002 5.6964C1.50002 6.48529 1.8278 7.38807 2.48335 8.40473C3.13891 9.4214 4.14447 10.552 5.50002 11.7964ZM5.50002 13.5631C3.71113 12.0408 2.37502 10.627 1.49169 9.3214C0.608354 8.01585 0.166687 6.80751 0.166687 5.6964C0.166687 4.02974 0.702798 2.70196 1.77502 1.71307C2.84724 0.724181 4.08891 0.229736 5.50002 0.229736C6.91113 0.229736 8.1528 0.724181 9.22502 1.71307C10.2972 2.70196 10.8334 4.02974 10.8334 5.6964C10.8334 6.80751 10.3917 8.01585 9.50836 9.3214C8.62502 10.627 7.28891 12.0408 5.50002 13.5631Z" fill="white"/>
</svg>
