<svg width="31" height="19" viewBox="0 0 31 19" fill="none" xmlns="http://www.w3.org/2000/svg">
<path d="M5.5 18.1464C4.125 18.1464 2.94792 17.6568 1.96875 16.6777C0.989583 15.6985 0.5 14.5214 0.5 13.1464C0.5 11.9589 0.880208 10.9068 1.64062 9.99015C2.40104 9.07348 3.375 8.50056 4.5625 8.2714L3.6875 7.5214H0.5V5.6464H6.125L9.25 7.5214L14.25 5.6464H18.1875L16.25 3.14639H13V0.646393H17.4375L20.0625 4.02139L24.25 1.89639V5.6464H21.375L23.5625 8.5214C23.875 8.3964 24.1927 8.30265 24.5156 8.24015C24.8385 8.17765 25.1667 8.1464 25.5 8.1464C26.875 8.1464 28.0521 8.63598 29.0312 9.61515C30.0104 10.5943 30.5 11.7714 30.5 13.1464C30.5 14.5214 30.0104 15.6985 29.0312 16.6777C28.0521 17.6568 26.875 18.1464 25.5 18.1464C24.125 18.1464 22.9479 17.6568 21.9688 16.6777C20.9896 15.6985 20.5 14.5214 20.5 13.1464C20.5 12.5839 20.599 12.037 20.7969 11.5058C20.9948 10.9745 21.2708 10.4797 21.625 10.0214L21 9.2714L16.75 15.6464H13L10.5 13.4589C10.3958 14.7714 9.86458 15.8808 8.90625 16.787C7.94792 17.6933 6.8125 18.1464 5.5 18.1464ZM5.5 15.6464C6.1875 15.6464 6.77604 15.4016 7.26562 14.912C7.75521 14.4224 8 13.8339 8 13.1464C8 12.4589 7.75521 11.8704 7.26562 11.3808C6.77604 10.8912 6.1875 10.6464 5.5 10.6464C4.8125 10.6464 4.22396 10.8912 3.73438 11.3808C3.24479 11.8704 3 12.4589 3 13.1464C3 13.8339 3.24479 14.4224 3.73438 14.912C4.22396 15.4016 4.8125 15.6464 5.5 15.6464ZM25.5 15.6464C26.1875 15.6464 26.776 15.4016 27.2656 14.912C27.7552 14.4224 28 13.8339 28 13.1464C28 12.4589 27.7552 11.8704 27.2656 11.3808C26.776 10.8912 26.1875 10.6464 25.5 10.6464C24.8125 10.6464 24.224 10.8912 23.7344 11.3808C23.2448 11.8704 23 12.4589 23 13.1464C23 13.8339 23.2448 14.4224 23.7344 14.912C24.224 15.4016 24.8125 15.6464 25.5 15.6464ZM15.4375 13.1464L18.75 8.1464H14.6875L10.1875 9.8339L13.9375 13.1464H15.4375Z" fill="white"/>
</svg>
