<svg width="21" height="19" viewBox="0 0 21 19" fill="none" xmlns="http://www.w3.org/2000/svg">
<path d="M10.6135 16.5964C10.6754 16.5964 10.7374 16.5814 10.7993 16.5514C10.8613 16.5214 10.9077 16.4914 10.9387 16.4614L18.5575 9.08142C18.7433 8.90142 18.8788 8.69892 18.964 8.47392C19.0492 8.24892 19.0918 8.02392 19.0918 7.79892C19.0918 7.55892 19.0492 7.33017 18.964 7.11267C18.8788 6.89517 18.7433 6.70392 18.5575 6.53892L14.6087 2.71392C14.4384 2.53392 14.241 2.40267 14.0164 2.32017C13.7919 2.23767 13.5557 2.19642 13.308 2.19642C13.0757 2.19642 12.8434 2.23767 12.6111 2.32017C12.3788 2.40267 12.1698 2.53392 11.984 2.71392L11.7285 2.96142L13.4473 4.64892C13.6796 4.85892 13.85 5.09892 13.9583 5.36892C14.0667 5.63892 14.1209 5.92392 14.1209 6.22392C14.1209 6.85392 13.9003 7.38267 13.4589 7.81017C13.0176 8.23767 12.4718 8.45142 11.8214 8.45142C11.5117 8.45142 11.2136 8.39892 10.9271 8.29392C10.6406 8.18892 10.389 8.03142 10.1722 7.82142L8.43007 6.15642L4.36515 10.0939C4.3187 10.1389 4.28385 10.1877 4.26063 10.2402C4.2374 10.2927 4.22578 10.3489 4.22578 10.4089C4.22578 10.5289 4.27224 10.6377 4.36515 10.7352C4.45806 10.8327 4.56646 10.8814 4.69035 10.8814C4.75229 10.8814 4.81423 10.8664 4.87617 10.8364C4.93811 10.8064 4.98457 10.7764 5.01554 10.7464L8.17456 7.68642L9.47533 8.94642L6.33954 12.0064C6.29308 12.0514 6.25824 12.1002 6.23501 12.1527C6.21179 12.2052 6.20017 12.2614 6.20017 12.3214C6.20017 12.4414 6.24663 12.5464 6.33954 12.6364C6.43245 12.7264 6.54085 12.7714 6.66473 12.7714C6.72667 12.7714 6.78862 12.7564 6.85056 12.7264C6.9125 12.6964 6.95895 12.6664 6.98993 12.6364L10.1489 9.59892L11.4497 10.8589L8.31393 13.9189C8.26747 13.9489 8.23263 13.9939 8.2094 14.0539C8.18617 14.1139 8.17456 14.1739 8.17456 14.2339C8.17456 14.3539 8.22101 14.4589 8.31393 14.5489C8.40684 14.6389 8.51524 14.6839 8.63912 14.6839C8.70106 14.6839 8.75913 14.6727 8.81333 14.6502C8.86753 14.6277 8.91786 14.5939 8.96431 14.5489L12.1233 11.5114L13.4241 12.7714L10.2651 15.8314C10.2186 15.8764 10.1838 15.9252 10.1606 15.9777C10.1373 16.0302 10.1257 16.0864 10.1257 16.1464C10.1257 16.2664 10.176 16.3714 10.2767 16.4614C10.3774 16.5514 10.4896 16.5964 10.6135 16.5964ZM10.5903 18.3964C10.0173 18.3964 9.51017 18.2127 9.06884 17.8452C8.62751 17.4777 8.36813 17.0164 8.2907 16.4614C7.76419 16.3864 7.32286 16.1764 6.9667 15.8314C6.61053 15.4864 6.39374 15.0589 6.31631 14.5489C5.78981 14.4739 5.35235 14.2602 5.00392 13.9077C4.6555 13.5552 4.44258 13.1314 4.36515 12.6364C3.77671 12.5614 3.29666 12.3139 2.92501 11.8939C2.55336 11.4739 2.36754 10.9789 2.36754 10.4089C2.36754 10.1089 2.42561 9.82017 2.54175 9.54267C2.65789 9.26517 2.82436 9.02142 3.04115 8.81142L8.43007 3.61392L11.4729 6.56142C11.5039 6.60642 11.5504 6.64017 11.6123 6.66267C11.6743 6.68517 11.7362 6.69642 11.7981 6.69642C11.9375 6.69642 12.0536 6.65517 12.1466 6.57267C12.2395 6.49017 12.2859 6.38142 12.2859 6.24642C12.2859 6.18642 12.2743 6.12642 12.2511 6.06642C12.2279 6.00642 12.193 5.96142 12.1466 5.93142L8.82494 2.71392C8.6546 2.53392 8.45717 2.40267 8.23263 2.32017C8.00809 2.23767 7.77194 2.19642 7.52417 2.19642C7.29189 2.19642 7.05961 2.23767 6.82733 2.32017C6.59505 2.40267 6.386 2.53392 6.20017 2.71392L2.92501 5.90892C2.78564 6.04392 2.6695 6.20142 2.57659 6.38142C2.48368 6.56142 2.42174 6.74142 2.39077 6.92142C2.35979 7.10142 2.35979 7.28517 2.39077 7.47267C2.42174 7.66017 2.48368 7.83642 2.57659 8.00142L1.22936 9.30642C0.96611 8.96142 0.772543 8.58267 0.64866 8.17017C0.524777 7.75767 0.47832 7.34142 0.509291 6.92142C0.540262 6.50142 0.64866 6.09267 0.834484 5.69517C1.02031 5.29767 1.27582 4.94142 1.60101 4.62642L4.87617 1.45392C5.24782 1.10892 5.66205 0.846423 6.11887 0.666423C6.57569 0.486423 7.04412 0.396423 7.52417 0.396423C8.00422 0.396423 8.47265 0.486423 8.92947 0.666423C9.38629 0.846423 9.79278 1.10892 10.1489 1.45392L10.4045 1.70142L10.66 1.45392C11.0316 1.10892 11.4458 0.846423 11.9027 0.666423C12.3595 0.486423 12.8279 0.396423 13.308 0.396423C13.788 0.396423 14.2564 0.486423 14.7133 0.666423C15.1701 0.846423 15.5766 1.10892 15.9327 1.45392L19.8583 5.25642C20.2144 5.60142 20.4854 5.99892 20.6713 6.44892C20.8571 6.89892 20.95 7.35642 20.95 7.82142C20.95 8.28642 20.8571 8.74017 20.6713 9.18267C20.4854 9.62517 20.2144 10.0189 19.8583 10.3639L12.2395 17.7214C12.0227 17.9314 11.771 18.0964 11.4846 18.2164C11.1981 18.3364 10.9 18.3964 10.5903 18.3964Z" fill="white"/>
</svg>
