<svg width="89" height="81" viewBox="0 0 89 81" fill="none" xmlns="http://www.w3.org/2000/svg">
<path d="M0.29248 12.1037C0.29248 6.7156 4.66043 2.34764 10.0486 2.34764H68.5852C73.9733 2.34764 78.3413 6.7156 78.3413 12.1037V70.6403C78.3413 76.0285 73.9733 80.3964 68.5852 80.3964H10.0486C4.66043 80.3964 0.29248 76.0285 0.29248 70.6403V12.1037Z" fill="#F5F5F5"/>
<path d="M18.199 64.5082L13.951 12.2019L64.6827 12.307L60.1909 64.5082L39.5083 70.5421L18.199 64.5082Z" fill="#1B73BA"/>
<path d="M39.5083 65.4905V17.1835L60.4 17.2536L56.6745 60.4739L39.5083 65.4905Z" fill="#1C88C7"/>
<path d="M55.2118 23.358H23.0737L23.9443 29.6723H39.195L24.1882 36.1625L25.0584 42.2665H47.1688L46.3678 50.7911L38.8816 52.2647L32.0921 50.5108L31.5696 45.6693H25.337L26.1724 55.738L39.5431 59.4916L52.357 55.3872L53.9935 35.7062H40.4481L55.2114 29.5321L55.2118 23.358Z" fill="white"/>
<path d="M88.0974 70.6403C88.0974 76.0285 83.7294 80.3964 78.3413 80.3964C72.9531 80.3964 68.5852 76.0285 68.5852 70.6403C68.5852 65.2522 72.9531 60.8842 78.3413 60.8842C83.7294 60.8842 88.0974 65.2522 88.0974 70.6403Z" fill="#DDC02C"/>
<path d="M86.014 1.59718C83.7168 -0.233361 80.3004 0.0959008 78.1918 2.13027L77.366 2.92599L76.5401 2.13027C74.4358 0.0959008 71.0151 -0.233361 68.7179 1.59718C66.0853 3.69819 65.947 7.46902 68.3029 9.74642L76.4144 17.5782C76.9384 18.0838 77.7894 18.0838 78.3134 17.5782L86.4249 9.74642C88.7849 7.46902 88.6466 3.69819 86.014 1.59718Z" fill="#FF6F6F"/>
</svg>
