<svg width="89" height="81" viewBox="0 0 89 81" fill="none" xmlns="http://www.w3.org/2000/svg">
<path d="M0.487793 12.1037C0.487793 6.7156 4.85575 2.34764 10.2439 2.34764H68.7805C74.1686 2.34764 78.5366 6.7156 78.5366 12.1037V70.6403C78.5366 76.0285 74.1686 80.3964 68.7805 80.3964H10.2439C4.85575 80.3964 0.487793 76.0285 0.487793 70.6403V12.1037Z" fill="#F5F5F5"/>
<path d="M18.3943 64.5086L14.1463 12.2015L64.878 12.3066L60.3862 64.5086L39.7037 70.5425L18.3943 64.5086Z" fill="#E34F26"/>
<path d="M39.7037 65.4909V17.1831L60.5953 17.2532L56.8698 60.4739L39.7037 65.4909Z" fill="#EF652A"/>
<path d="M54.8503 29.2514L55.4419 22.8662H23.3038L25.0794 42.4421H47.2594L46.3896 50.7915L39.2863 52.7206L32.0788 50.6159L31.6958 45.6343H25.3233L26.1939 55.8081L39.2859 59.4916L52.4823 55.8081L54.2579 35.9519H30.9643L30.3027 29.2514H54.8503Z" fill="white"/>
<path d="M88.2927 70.6403C88.2927 76.0285 83.9247 80.3964 78.5366 80.3964C73.1484 80.3964 68.7805 76.0285 68.7805 70.6403C68.7805 65.2522 73.1484 60.8842 78.5366 60.8842C83.9247 60.8842 88.2927 65.2522 88.2927 70.6403Z" fill="#DDC02C"/>
<path d="M86.2094 1.59718C83.9121 -0.233361 80.4957 0.0959008 78.3871 2.13027L77.5613 2.92599L76.7355 2.13027C74.6311 0.0959008 71.2104 -0.233361 68.9132 1.59718C66.2806 3.69819 66.1423 7.46902 68.4982 9.74642L76.6097 17.5782C77.1337 18.0838 77.9847 18.0838 78.5087 17.5782L86.6202 9.74642C88.9803 7.46902 88.8419 3.69819 86.2094 1.59718Z" fill="#FF6F6F"/>
</svg>
