<svg width="91" height="81" viewBox="0 0 91 81" fill="none" xmlns="http://www.w3.org/2000/svg">
<path d="M0.512207 10.3964C0.512207 4.87358 4.98936 0.396423 10.5122 0.396423H70.5122C76.0351 0.396423 80.5122 4.87358 80.5122 10.3964V70.3964C80.5122 75.9193 76.0351 80.3964 70.5122 80.3964H10.5122C4.98936 80.3964 0.512207 75.9193 0.512207 70.3964V10.3964Z" fill="#F5F5F5"/>
<path d="M90.5122 70.3964C90.5122 75.9193 86.0351 80.3964 80.5122 80.3964C74.9894 80.3964 70.5122 75.9193 70.5122 70.3964C70.5122 64.8736 74.9894 60.3964 80.5122 60.3964C86.0351 60.3964 90.5122 64.8736 90.5122 70.3964Z" fill="#FF9A00"/>
<path d="M32.7383 56.7145C32.7383 56.7145 30.4495 58.0455 34.3671 58.4959C39.1131 59.0373 41.5388 58.9597 46.7689 57.9698C46.7689 57.9698 48.144 58.832 50.0643 59.5788C38.3397 64.6037 23.5292 59.2877 32.7383 56.7145Z" fill="#5382A1"/>
<path d="M31.3056 50.1573C31.3056 50.1573 28.7386 52.0575 32.659 52.463C37.7289 52.986 41.7326 53.0288 48.6607 51.6947C48.6607 51.6947 49.619 52.6662 51.1257 53.1975C36.95 57.3427 21.1607 53.5244 31.3056 50.1573Z" fill="#5382A1"/>
<path d="M43.3836 39.034C46.2725 42.3601 42.6245 45.3531 42.6245 45.3531C42.6245 45.3531 49.9601 41.5663 46.5912 36.8243C43.4448 32.4021 41.0319 30.2049 54.0943 22.6292C54.0943 22.6292 33.5906 27.7501 43.3836 39.034Z" fill="#E76F00"/>
<path d="M58.8903 61.5647C58.8903 61.5647 60.584 62.9602 57.025 64.0399C50.2574 66.09 28.8575 66.7091 22.9127 64.1216C20.7757 63.1919 24.7832 61.9017 26.0438 61.631C27.3585 61.3459 28.1098 61.399 28.1098 61.399C25.7332 59.7249 12.7487 64.6864 21.5143 66.1073C45.4194 69.984 65.091 64.3616 58.8903 61.5647Z" fill="#5382A1"/>
<path d="M33.8389 43.3632C33.8389 43.3632 22.9536 45.9487 29.9841 46.8875C32.9527 47.285 38.8703 47.195 44.3825 46.7332C48.8874 46.3532 53.4108 45.5452 53.4108 45.5452C53.4108 45.5452 51.8223 46.2255 50.6731 47.0102C39.6192 49.9174 18.2652 48.5649 24.4127 45.5912C29.6117 43.0781 33.8389 43.3632 33.8389 43.3632Z" fill="#5382A1"/>
<path d="M53.3659 54.2781C64.6027 48.439 59.4072 42.8277 55.7809 43.5837C54.892 43.7687 54.4957 43.929 54.4957 43.929C54.4957 43.929 54.8257 43.4121 55.4559 43.1884C62.63 40.6662 68.1473 50.6272 53.14 54.5724C53.14 54.5724 53.3139 54.4171 53.3659 54.2781Z" fill="#5382A1"/>
<path d="M46.5912 10.3964C46.5912 10.3964 52.8143 16.6216 40.6888 26.1942C30.9655 33.8731 38.4716 38.2514 40.6848 43.2537C35.0091 38.1329 30.8439 33.625 33.6383 29.4294C37.7397 23.2707 49.1021 20.2848 46.5912 10.3964Z" fill="#E76F00"/>
<path d="M34.9431 70.1006C45.729 70.791 62.292 69.7175 62.6842 64.6139C62.6842 64.6139 61.9302 66.5486 53.7703 68.0851C44.5643 69.8176 33.21 69.6153 26.4756 68.505C26.4756 68.505 27.8542 69.646 34.9431 70.1006Z" fill="#5382A1"/>
</svg>
