<svg width="88" height="81" viewBox="0 0 88 81" fill="none" xmlns="http://www.w3.org/2000/svg">
<path d="M0.0976562 12.1037C0.0976562 6.7156 4.46561 2.34764 9.85375 2.34764H68.3903C73.7785 2.34764 78.1464 6.7156 78.1464 12.1037V70.6403C78.1464 76.0285 73.7785 80.3964 68.3903 80.3964H9.85375C4.46561 80.3964 0.0976562 76.0285 0.0976562 70.6403V12.1037Z" fill="#F5F5F5"/>
<path d="M9.85375 12.1037H68.3903V70.6403H9.85375V12.1037Z" fill="#F0DB4F"/>
<path d="M63.5995 56.6795C63.171 54.0086 61.4294 51.7662 56.2713 49.674C54.4796 48.8505 52.482 48.2607 51.8866 46.903C51.6751 46.1128 51.6473 45.6677 51.7809 45.1892C52.1648 43.6367 54.0177 43.1526 55.4867 43.5978C56.4326 43.9149 57.3285 44.6439 57.8682 45.8068C60.3944 44.1709 60.3889 44.182 62.1527 43.0581C61.5073 42.0565 61.1623 41.5946 60.7394 41.1662C59.2203 39.4691 57.1504 38.5955 53.8397 38.6623C53.2665 38.7346 52.6879 38.8125 52.1147 38.8848C50.4622 39.3022 48.8874 40.1702 47.9637 41.3331C45.1927 44.477 45.9828 49.98 49.3548 52.2448C52.6767 54.7376 57.5566 55.3051 58.1798 57.6366C58.7863 60.4911 56.0821 61.4147 53.3945 61.0865C51.4136 60.6747 50.3119 59.6676 49.1211 57.8369C46.9288 59.1056 46.9288 59.1056 44.6753 60.402C45.2095 61.5706 45.7714 62.0992 46.6673 63.1119C50.9073 67.4131 61.5184 67.2016 63.4215 60.6914C63.4993 60.4688 64.0113 58.9775 63.5995 56.6795ZM41.6761 39.0072H36.2008C36.2008 43.7369 36.1786 48.4332 36.1786 53.1628C36.1786 56.1731 36.3344 58.933 35.8447 59.7788C35.0435 61.4425 32.968 61.2366 32.022 60.9139C31.0594 60.4409 30.5698 59.7676 30.0022 58.8162C29.8464 58.5435 29.7295 58.3321 29.6905 58.3154C28.2049 59.2224 26.7248 60.1348 25.2391 61.0419C25.9792 62.5609 27.0697 63.8797 28.4664 64.7365C30.553 65.9885 33.3574 66.3724 36.2899 65.6992C38.1984 65.1427 39.8454 63.991 40.7079 62.2382C41.9543 59.9402 41.6872 57.158 41.6761 54.0809C41.7039 49.0619 41.6761 44.0429 41.6761 39.0072Z" fill="#323330"/>
<path d="M87.9025 70.6403C87.9025 76.0285 83.5346 80.3964 78.1464 80.3964C72.7583 80.3964 68.3903 76.0285 68.3903 70.6403C68.3903 65.2522 72.7583 60.8842 78.1464 60.8842C83.5346 60.8842 87.9025 65.2522 87.9025 70.6403Z" fill="#DDC02C"/>
<path d="M85.8192 1.59718C83.522 -0.233361 80.1055 0.0959008 77.997 2.13027L77.1711 2.92599L76.3453 2.13027C74.2409 0.0959008 70.8203 -0.233361 68.5231 1.59718C65.8905 3.69819 65.7521 7.46902 68.108 9.74642L76.2196 17.5782C76.7436 18.0838 77.5945 18.0838 78.1185 17.5782L86.23 9.74642C88.5901 7.46902 88.4518 3.69819 85.8192 1.59718Z" fill="#FF6F6F"/>
</svg>
