<svg width="89" height="81" viewBox="0 0 89 81" fill="none" xmlns="http://www.w3.org/2000/svg">
<path d="M0.902344 12.1037C0.902344 6.7156 5.2703 2.34764 10.6584 2.34764H69.195C74.5832 2.34764 78.9511 6.7156 78.9511 12.1037V70.6403C78.9511 76.0285 74.5832 80.3964 69.195 80.3964H10.6584C5.2703 80.3964 0.902344 76.0285 0.902344 70.6403V12.1037Z" fill="#F5F5F5"/>
<path d="M88.7072 70.6403C88.7072 76.0285 84.3393 80.3964 78.9511 80.3964C73.563 80.3964 69.195 76.0285 69.195 70.6403C69.195 65.2522 73.563 60.8842 78.9511 60.8842C84.3393 60.8842 88.7072 65.2522 88.7072 70.6403Z" fill="#DDC02C"/>
<path d="M86.6239 1.59718C84.3267 -0.233361 80.9102 0.0959008 78.8016 2.13027L77.9758 2.92599L77.15 2.13027C75.0456 0.0959008 71.625 -0.233361 69.3277 1.59718C66.6952 3.69819 66.5568 7.46902 68.9127 9.74642L77.0242 17.5782C77.5482 18.0838 78.3992 18.0838 78.9232 17.5782L87.0347 9.74642C89.3948 7.46902 89.2565 3.69819 86.6239 1.59718Z" fill="#FF6F6F"/>
<path d="M39.9265 57.6285C56.4949 57.6285 69.9263 50.3502 69.9263 41.372C69.9263 32.3938 56.4949 25.1155 39.9265 25.1155C23.3581 25.1155 9.92674 32.3938 9.92674 41.372C9.92674 50.3502 23.3581 57.6285 39.9265 57.6285Z" fill="#6181B6"/>
<path d="M46.0009 46.6259L47.4916 38.4371C47.8304 36.5892 47.548 35.2125 46.656 34.3427C45.7977 33.4973 44.3414 33.0865 42.196 33.0865H39.6222L40.3557 29.0285C40.3785 28.8715 40.3449 28.7145 40.2545 28.5938C40.1641 28.4732 40.029 28.4004 39.8818 28.4004H36.3252C36.088 28.4004 35.896 28.5819 35.8508 28.8232L34.2702 37.5189C34.1234 36.5404 33.7734 35.695 33.2091 35.0067C32.1703 33.7266 30.5105 33.0865 28.3086 33.0865H21.4099C21.1727 33.0865 20.9807 33.268 20.9355 33.5092L17.729 51.1061C17.7066 51.2636 17.7402 51.4206 17.8306 51.5413C17.921 51.6619 18.0561 51.7347 18.2034 51.7347H21.7939C22.0311 51.7347 22.2231 51.5528 22.2683 51.312L23.0474 47.0481H25.712C27.1119 47.0481 28.2862 46.8911 29.2122 46.5651C30.1493 46.2386 31.0184 45.6833 31.7752 44.9226C32.3959 44.3185 32.9043 43.6426 33.2883 42.9058L32.6447 46.4205C32.6219 46.5771 32.6559 46.7345 32.7463 46.8547C32.8367 46.9758 32.9723 47.0481 33.1191 47.0481H36.6756C36.9128 47.0481 37.1048 46.8667 37.15 46.6254L38.9003 36.9636H41.3393C42.3776 36.9636 42.6828 37.1809 42.762 37.2776C42.8412 37.3624 42.9992 37.6764 42.8184 38.6305L41.4293 46.4325C41.4065 46.59 41.4405 46.7465 41.5309 46.8671C41.6213 46.9878 41.7564 47.0605 41.9032 47.0605H45.5166C45.7529 47.0486 45.9557 46.8796 46.0009 46.6259ZM29.5161 39.8622C29.2905 41.0939 28.8725 41.9633 28.2626 42.4707C27.6418 42.9781 26.6591 43.2314 25.3272 43.2314H23.7349L24.8868 36.9028H26.9414C28.4545 36.9028 29.0641 37.2532 29.3013 37.5429C29.6405 37.9421 29.7197 38.7391 29.5161 39.8622Z" fill="white"/>
<path d="M61.2098 35.0071C60.171 33.727 58.5111 33.087 56.3093 33.087H49.411C49.1738 33.087 48.9819 33.2684 48.9367 33.5097L45.7409 51.119C45.718 51.2756 45.7525 51.4331 45.8424 51.5532C45.9328 51.6743 46.0684 51.7466 46.2148 51.7466H49.8058C50.043 51.7466 50.2345 51.5657 50.2802 51.3239L51.0593 47.0605H53.7239C55.1238 47.0605 56.2981 46.9035 57.224 46.5771C58.1616 46.2515 59.0307 45.6957 59.787 44.9351C60.4194 44.307 60.9502 43.6066 61.3453 42.8455C61.7405 42.0848 62.0225 41.2394 62.1921 40.3332C62.5877 38.0867 62.2601 36.2996 61.2098 35.0071ZM57.4952 39.8622C57.2701 41.0939 56.8521 41.9633 56.2426 42.4707C55.6214 42.9781 54.6391 43.2314 53.3068 43.2314H51.7149L52.8664 36.9028H54.9215C56.4346 36.9028 57.0441 37.2532 57.2809 37.5429C57.6308 37.9421 57.6984 38.7391 57.4952 39.8622Z" fill="white"/>
</svg>
