<svg width="89" height="81" viewBox="0 0 89 81" fill="none" xmlns="http://www.w3.org/2000/svg">
<path d="M0.707031 12.1037C0.707031 6.7156 5.07499 2.34764 10.4631 2.34764H68.9997C74.3879 2.34764 78.7558 6.7156 78.7558 12.1037V70.6403C78.7558 76.0285 74.3879 80.3964 68.9997 80.3964H10.4631C5.07499 80.3964 0.707031 76.0285 0.707031 70.6403V12.1037Z" fill="#F5F5F5"/>
<path d="M23.3826 21.9785C23.3826 18.1108 24.4434 16.0067 30.3004 15.0048C34.2769 14.3234 39.3754 14.2382 44.1313 15.0048C47.8876 15.6109 51.0491 18.3464 51.0491 21.9785V34.739C51.0491 38.4816 47.9796 41.5473 44.1313 41.5473H30.3004C25.6064 41.5473 21.6503 45.4602 21.6503 49.8839V56.0062H16.8948C12.8721 56.0062 10.5301 53.1704 9.54621 49.2025C8.21909 43.8717 8.27543 40.6955 9.54621 35.5902C10.648 31.1365 14.1685 28.7865 18.1914 28.7865H37.2183V27.083H23.3823L23.3826 21.9785Z" fill="url(#paint0_linear_152_941)"/>
<path d="M51.0494 62.8147C51.0494 66.6825 47.616 68.6415 44.1315 69.6184C38.8893 71.0914 34.682 70.8659 30.3007 69.6184C26.6417 68.5765 23.3828 66.4471 23.3828 62.8147V50.0542C23.3828 46.3818 26.5139 43.246 30.3007 43.246H44.1315C48.7384 43.246 52.7817 39.3535 52.7817 34.739V28.7871H57.9676C61.9954 28.7871 63.8917 31.7128 64.8855 35.5908C66.2689 40.9766 66.3305 45.0045 64.8855 49.203C63.4866 53.2812 61.9902 56.0067 57.9676 56.0067H37.2186V57.7102H51.0494V62.8147Z" fill="url(#paint1_linear_152_941)"/>
<path d="M26.8415 21.1319C26.8415 19.7191 27.9996 18.5767 29.4348 18.5767C30.8644 18.5767 32.028 19.7189 32.028 21.1319C32.028 22.5401 30.8647 23.682 29.4348 23.682C28.0002 23.682 26.8415 22.5398 26.8415 21.1319ZM42.404 63.6616C42.404 62.2534 43.5673 61.1115 44.9972 61.1115C46.4318 61.1115 47.5905 62.2537 47.5905 63.6616C47.5905 65.0744 46.4324 66.2168 44.9972 66.2168C43.5676 66.2168 42.404 65.0747 42.404 63.6616Z" fill="white"/>
<path d="M88.5119 70.6403C88.5119 76.0285 84.144 80.3964 78.7558 80.3964C73.3677 80.3964 68.9997 76.0285 68.9997 70.6403C68.9997 65.2522 73.3677 60.8842 78.7558 60.8842C84.144 60.8842 88.5119 65.2522 88.5119 70.6403Z" fill="#DDC02C"/>
<path d="M86.4286 1.59718C84.1314 -0.233361 80.7149 0.0959008 78.6063 2.13027L77.7805 2.92599L76.9547 2.13027C74.8503 0.0959008 71.4296 -0.233361 69.1324 1.59718C66.4999 3.69819 66.3615 7.46902 68.7174 9.74642L76.8289 17.5782C77.3529 18.0838 78.2039 18.0838 78.7279 17.5782L86.8394 9.74642C89.1995 7.46902 89.0612 3.69819 86.4286 1.59718Z" fill="#FF6F6F"/>
<defs>
<linearGradient id="paint0_linear_152_941" x1="88.5125" y1="31.4963" x2="0.708856" y2="30.7297" gradientUnits="userSpaceOnUse">
<stop stop-color="#366A96"/>
<stop offset="1" stop-color="#3679B0"/>
</linearGradient>
<linearGradient id="paint1_linear_152_941" x1="88.5114" y1="40.3966" x2="-84.9478" y2="40.3966" gradientUnits="userSpaceOnUse">
<stop stop-color="#FFC836"/>
<stop offset="1" stop-color="#FFE873"/>
</linearGradient>
</defs>
</svg>
