<svg width="90" height="81" viewBox="0 0 90 81" fill="none" xmlns="http://www.w3.org/2000/svg">
<path d="M0 10.3964C0 4.87358 4.47715 0.396423 10 0.396423H70C75.5228 0.396423 80 4.87358 80 10.3964V70.3964C80 75.9193 75.5228 80.3964 70 80.3964H10C4.47715 80.3964 0 75.9193 0 70.3964V10.3964Z" fill="#F5F5F5"/>
<path d="M15.0601 21.1921C14.9394 17.6566 17.641 14.3964 21.2928 14.3964H58.7119C62.3636 14.3964 65.0653 17.6566 64.9445 21.1921C64.8285 24.5883 64.9791 28.9876 66.065 32.5748C67.1544 36.173 68.9914 38.4473 72 38.7396V42.0533C68.9914 42.3455 67.1544 44.6199 66.065 48.2181C64.9791 51.8052 64.8285 56.2046 64.9445 59.6009C65.0653 63.1362 62.3636 66.3964 58.7119 66.3964H21.2928C17.641 66.3964 14.9394 63.1362 15.0602 59.6009C15.1761 56.2046 15.0255 51.8052 13.9395 48.2181C12.8502 44.6199 11.0087 42.3455 8 42.0533V38.7396C11.0086 38.4473 12.8502 36.173 13.9395 32.5748C15.0255 28.9876 15.1761 24.5883 15.0601 21.1921Z" fill="url(#paint0_linear_97_2009)"/>
<path d="M41.3879 54.2194C47.3 54.2194 50.8626 51.2679 50.8626 46.3996C50.8626 42.7197 48.3206 40.0556 44.5461 39.6339V39.4806C47.3192 39.0206 49.4954 36.3948 49.4954 33.4625C49.4954 29.2842 46.2601 26.5625 41.3301 26.5625H30.2376V54.2194H41.3879ZM34.5514 30.07H40.2902C43.41 30.07 45.1816 31.4882 45.1816 34.0565C45.1816 36.7973 43.1211 38.3306 39.3851 38.3306H34.5514V30.07ZM34.5514 50.7121V41.6081H40.2516C44.3342 41.6081 46.4526 43.1413 46.4526 46.1313C46.4526 49.1212 44.3921 50.7121 40.502 50.7121H34.5514Z" fill="url(#paint1_linear_97_2009)"/>
<path d="M90 70.3964C90 75.9193 85.5228 80.3964 80 80.3964C74.4772 80.3964 70 75.9193 70 70.3964C70 64.8736 74.4772 60.3964 80 60.3964C85.5228 60.3964 90 64.8736 90 70.3964Z" fill="#FF9A00"/>
<defs>
<linearGradient id="paint0_linear_97_2009" x1="13.3733" y1="2.51368" x2="98.476" y2="63.0753" gradientUnits="userSpaceOnUse">
<stop stop-color="#9013FE"/>
<stop offset="1" stop-color="#6610F2"/>
</linearGradient>
<linearGradient id="paint1_linear_97_2009" x1="8.51291" y1="5.66205" x2="37.5123" y2="78.2254" gradientUnits="userSpaceOnUse">
<stop stop-color="white"/>
<stop offset="1" stop-color="#F1E5FC"/>
</linearGradient>
</defs>
</svg>
