<svg width="90" height="83" viewBox="0 0 90 83" fill="none" xmlns="http://www.w3.org/2000/svg">
<rect y="2.39642" width="80" height="80" rx="5" fill="#F5F5F5"/>
<g clip-path="url(#clip0_152_878)">
<path d="M20.9985 17.048L32.4995 17.0526L40.0175 29.8058L47.509 17.0536L59 17.0505L40.075 50.5994L20.9985 17.048Z" fill="#35495E"/>
<path d="M8.45508 17.1379L20.9886 17.05L40.0636 50.6009L58.9901 17.052L71.5451 17.0653L40.0621 72.2827L8.45508 17.1379Z" fill="#41B883"/>
</g>
<circle cx="80" cy="72.3964" r="10" fill="#DDC02C"/>
<path d="M87.8646 1.6272C85.51 -0.249106 82.0081 0.0883877 79.8468 2.17362L79.0003 2.98923L78.1538 2.17362C75.9969 0.0883877 72.4907 -0.249106 70.136 1.6272C67.4376 3.78073 67.2959 7.64584 69.7107 9.98017L78.0249 18.0077C78.562 18.526 79.4343 18.526 79.9714 18.0077L88.2857 9.98017C90.7048 7.64584 90.563 3.78073 87.8646 1.6272Z" fill="#FF6F6F"/>
<defs>
<clipPath id="clip0_152_878">
<rect width="64" height="56" fill="white" transform="translate(8 16.3964)"/>
</clipPath>
</defs>
</svg>
