<svg width="355" height="171" viewBox="0 0 355 171" fill="none" xmlns="http://www.w3.org/2000/svg">
<path d="M43.24 61.2L39.46 49.23H18.49L14.71 61.2H4L24.43 0H33.97L54.49 61.2H43.24ZM24.34 30.51L21.55 39.33H36.31L33.52 30.51L29.02 15.03L24.34 30.51Z" fill="#34344B"/>
<path d="M98.24 74.2L78.8 135.4H67.73L43.24 61.2L54.493 61.2L68.7 104.89L73.58 120.82L78.08 104.89L87.26 74.2H98.24Z" fill="#34344B"/>
<path d="M39.24 61.2L35.46 49.23H14.49L10.71 61.2H0L20.43 0H29.97L50.49 61.2H39.24ZM20.34 30.51L17.55 39.33H32.31L29.52 30.51L25.02 15.03L20.34 30.51Z" fill="white"/>
<path d="M86.1033 61.2V55.17C83.3433 57.57 80.7633 59.34 78.3633 60.48C75.9633 61.56 73.5333 62.1 71.0733 62.1C66.9933 62.1 63.8433 60.72 61.6233 57.96C59.4033 55.14 58.2933 51.21 58.2933 46.17V15.57H68.6433V44.91C68.6433 49.95 70.5033 52.47 74.2233 52.47C75.7233 52.47 77.3433 52.11 79.0833 51.39C80.8833 50.67 83.0433 49.29 85.5633 47.25V15.57H95.9133V61.2H86.1033Z" fill="white"/>
<path d="M135.904 25.02C133.084 25.02 130.384 25.47 127.804 26.37C125.284 27.21 122.854 28.59 120.514 30.51V61.2H110.164V15.57H119.974V22.59C123.034 19.71 125.764 17.67 128.164 16.47C130.564 15.27 133.144 14.67 135.904 14.67V25.02Z" fill="white"/>
<path d="M182.318 35.64V41.04C182.318 47.4 180.578 52.5 177.098 56.34C173.618 60.18 168.698 62.1 162.338 62.1C155.978 62.1 151.058 60.18 147.578 56.34C144.098 52.5 142.358 47.4 142.358 41.04V35.64C142.358 29.28 144.068 24.21 147.488 20.43C150.968 16.59 155.918 14.67 162.338 14.67C168.758 14.67 173.678 16.59 177.098 20.43C180.578 24.21 182.318 29.28 182.318 35.64ZM171.698 35.64C171.698 31.98 170.888 29.13 169.268 27.09C167.648 24.99 165.338 23.94 162.338 23.94C159.338 23.94 157.028 24.99 155.408 27.09C153.788 29.13 152.978 31.98 152.978 35.64V41.04C152.978 44.7 153.788 47.58 155.408 49.68C157.028 51.78 159.338 52.83 162.338 52.83C165.338 52.83 167.648 51.78 169.268 49.68C170.888 47.58 171.698 44.7 171.698 41.04V35.64Z" fill="white"/>
<path d="M219.663 25.02C216.843 25.02 214.143 25.47 211.563 26.37C209.043 27.21 206.613 28.59 204.273 30.51V61.2H193.923V15.57H203.733V22.59C206.793 19.71 209.523 17.67 211.923 16.47C214.323 15.27 216.903 14.67 219.663 14.67V25.02Z" fill="white"/>
<path d="M263.378 58.59C260.258 59.85 257.318 60.75 254.558 61.29C251.798 61.83 249.188 62.1 246.728 62.1C239.948 62.1 234.818 60.18 231.338 56.34C227.858 52.5 226.118 47.4 226.118 41.04V35.64C226.118 31.38 226.898 27.69 228.458 24.57C230.018 21.45 232.238 19.02 235.118 17.28C237.998 15.54 241.388 14.67 245.288 14.67C248.468 14.67 251.438 15.33 254.198 16.65C257.018 17.91 259.298 19.92 261.038 22.68C262.838 25.38 263.738 28.86 263.738 33.12C263.738 34.38 263.648 35.73 263.468 37.17C263.288 38.55 262.988 40.02 262.568 41.58H236.108C236.228 45.3 237.158 48.09 238.898 49.95C240.638 51.81 243.428 52.74 247.268 52.74C249.308 52.74 251.408 52.5 253.568 52.02C255.788 51.54 258.068 50.82 260.408 49.86L263.378 58.59ZM245.288 23.4C242.528 23.4 240.368 24.3 238.808 26.1C237.308 27.84 236.438 30.36 236.198 33.66H253.478C253.538 33.36 253.568 33.09 253.568 32.85C253.568 32.55 253.568 32.28 253.568 32.04C253.568 29.16 252.758 27 251.138 25.56C249.518 24.12 247.568 23.4 245.288 23.4Z" fill="white"/>
<path d="M94.24 74.2L74.8 135.4H63.73L39.24 61.2L50.493 61.2L64.7 104.89L69.58 120.82L74.08 104.89L83.26 74.2H94.24Z" fill="white"/>
<path d="M134.095 132.79C130.975 134.05 128.035 134.95 125.275 135.49C122.515 136.03 119.905 136.3 117.445 136.3C110.665 136.3 105.535 134.38 102.055 130.54C98.5745 126.7 96.8345 121.6 96.8345 115.24V109.84C96.8345 105.58 97.6145 101.89 99.1745 98.77C100.735 95.65 102.955 93.22 105.835 91.48C108.715 89.74 112.105 88.87 116.005 88.87C119.185 88.87 122.155 89.53 124.915 90.85C127.735 92.11 130.015 94.12 131.755 96.88C133.555 99.58 134.455 103.06 134.455 107.32C134.455 108.58 134.365 109.93 134.185 111.37C134.005 112.75 133.705 114.22 133.285 115.78H106.825C106.945 119.5 107.875 122.29 109.615 124.15C111.355 126.01 114.145 126.94 117.985 126.94C120.025 126.94 122.125 126.7 124.285 126.22C126.505 125.74 128.785 125.02 131.125 124.06L134.095 132.79ZM116.005 97.6C113.245 97.6 111.085 98.5 109.525 100.3C108.025 102.04 107.155 104.56 106.915 107.86H124.195C124.255 107.56 124.285 107.29 124.285 107.05C124.285 106.75 124.285 106.48 124.285 106.24C124.285 103.36 123.475 101.2 121.855 99.76C120.235 98.32 118.285 97.6 116.005 97.6Z" fill="white"/>
<path d="M172.118 99.22C169.298 99.22 166.598 99.67 164.018 100.57C161.498 101.41 159.068 102.79 156.728 104.71V135.4H146.378V89.77H156.188V96.79C159.248 93.91 161.978 91.87 164.378 90.67C166.778 89.47 169.358 88.87 172.118 88.87V99.22Z" fill="white"/>
<path d="M203.503 98.5C202.003 98.5 200.293 98.86 198.373 99.58C196.453 100.3 194.173 101.71 191.533 103.81V135.4H181.183V89.77H190.993V95.89C193.813 93.43 196.483 91.66 199.003 90.58C201.523 89.44 204.073 88.87 206.653 88.87C211.033 88.87 214.363 90.28 216.643 93.1C218.923 95.86 220.063 99.76 220.063 104.8V135.4H209.713V106.06C209.713 101.02 207.643 98.5 203.503 98.5Z" fill="white"/>
<path d="M268.391 132.79C265.271 134.05 262.331 134.95 259.571 135.49C256.811 136.03 254.201 136.3 251.741 136.3C244.961 136.3 239.831 134.38 236.351 130.54C232.871 126.7 231.131 121.6 231.131 115.24V109.84C231.131 105.58 231.911 101.89 233.471 98.77C235.031 95.65 237.251 93.22 240.131 91.48C243.011 89.74 246.401 88.87 250.301 88.87C253.481 88.87 256.451 89.53 259.211 90.85C262.031 92.11 264.311 94.12 266.051 96.88C267.851 99.58 268.751 103.06 268.751 107.32C268.751 108.58 268.661 109.93 268.481 111.37C268.301 112.75 268.001 114.22 267.581 115.78H241.121C241.241 119.5 242.171 122.29 243.911 124.15C245.651 126.01 248.441 126.94 252.281 126.94C254.321 126.94 256.421 126.7 258.581 126.22C260.801 125.74 263.081 125.02 265.421 124.06L268.391 132.79ZM250.301 97.6C247.541 97.6 245.381 98.5 243.821 100.3C242.321 102.04 241.451 104.56 241.211 107.86H258.491C258.551 107.56 258.581 107.29 258.581 107.05C258.581 106.75 258.581 106.48 258.581 106.24C258.581 103.36 257.771 101.2 256.151 99.76C254.531 98.32 252.581 97.6 250.301 97.6Z" fill="white"/>
<path d="M308.125 133.87C306.565 134.59 304.765 135.16 302.725 135.58C300.685 136.06 298.615 136.3 296.515 136.3C293.035 136.3 290.245 135.58 288.145 134.14C286.045 132.7 284.515 130.69 283.555 128.11C282.655 125.53 282.205 122.59 282.205 119.29V98.77H274.825V89.77H282.205V77.89H292.555V89.77H306.775V98.77H292.555V119.29C292.555 122.05 293.065 123.97 294.085 125.05C295.165 126.07 296.695 126.58 298.675 126.58C299.635 126.58 300.655 126.49 301.735 126.31C302.875 126.07 304.135 125.68 305.515 125.14L308.125 133.87Z" fill="white"/>
<path d="M245.882 168.43C244.67 168.749 243.837 168.045 243.382 166.317C242.784 164.048 242.826 160.176 243.508 154.702C243.626 153.788 243.798 152.819 244.024 151.794C244.251 150.77 244.541 149.673 244.895 148.504C245.255 147.251 245.613 146.15 245.97 145.202C246.352 144.246 246.698 143.465 247.007 142.86C247.121 142.665 247.223 142.527 247.313 142.449C247.428 142.363 247.524 142.31 247.602 142.29C248.272 142.113 249.084 142.106 250.037 142.269C250.99 142.432 251.879 142.721 252.706 143.138C253.461 143.491 254.127 143.977 254.704 144.597C255.281 145.217 255.671 145.914 255.875 146.688C256.024 147.255 256.061 147.866 255.985 148.52C255.928 149.142 255.794 149.784 255.582 150.446C256.219 150.141 256.953 149.63 257.785 148.915C258.642 148.193 259.449 147.222 260.203 146.003C260.279 145.873 260.407 145.784 260.588 145.736C260.975 145.634 261.209 145.738 261.29 146.048C261.324 146.177 261.304 146.361 261.229 146.601C261.174 146.809 261.041 147.092 260.832 147.45C259.386 149.707 257.356 151.317 254.742 152.281C254.464 152.795 254.143 153.307 253.781 153.816C253.438 154.293 253.062 154.75 252.653 155.189C251.395 156.485 250.238 157.273 249.181 157.551C248.742 157.666 248.344 157.62 247.985 157.411C247.627 157.202 247.4 156.917 247.305 156.556C246.993 155.37 247.787 154.195 249.687 153.033C250.38 152.63 251.08 152.252 251.787 151.901C252.495 151.549 253.185 151.188 253.86 150.817C254.165 149.882 254.356 149.087 254.432 148.433C254.533 147.772 254.53 147.235 254.421 146.823C254.061 145.456 252.7 144.422 250.336 143.721C249.408 143.441 248.715 143.375 248.258 143.524C246.754 146.401 245.611 150.177 244.829 154.85C244.004 159.673 243.917 163.322 244.569 165.797C244.725 166.391 244.882 166.777 245.039 166.956C245.197 167.135 245.404 167.191 245.662 167.123C245.74 167.102 245.801 167.072 245.845 167.033C245.897 167.019 245.949 167.006 246 166.992C246.335 166.904 246.557 167.066 246.666 167.479C246.788 167.943 246.527 168.26 245.882 168.43ZM249.125 156.242C250.079 155.991 251.262 154.879 252.673 152.908C252.274 153.069 251.892 153.238 251.525 153.418C251.184 153.59 250.693 153.871 250.051 154.261C248.979 154.902 248.511 155.48 248.647 155.996C248.708 156.228 248.867 156.31 249.125 156.242ZM263.955 152.047C261.866 152.597 260.513 151.699 259.895 149.352C259.61 148.269 259.569 147.066 259.772 145.744C259.975 144.422 260.37 143.146 260.956 141.916C261.535 140.661 262.256 139.575 263.118 138.659C264.005 137.735 264.99 137.131 266.073 136.846C267.028 136.595 267.819 136.772 268.448 137.379C269.076 137.986 269.506 138.727 269.737 139.604C270.042 140.764 270.123 142.012 269.978 143.346C269.826 144.654 269.483 145.917 268.948 147.133C268.414 148.349 267.725 149.399 266.882 150.283C266.04 151.167 265.064 151.755 263.955 152.047ZM263.59 150.819C263.745 150.778 263.832 150.742 263.851 150.709C264.823 150.315 265.656 149.71 266.351 148.893C267.045 148.075 267.587 147.147 267.975 146.107C268.382 145.035 268.617 143.939 268.681 142.819C268.744 141.699 268.644 140.636 268.379 139.631C268.223 139.038 267.933 138.618 267.509 138.371C267.086 138.124 266.616 138.068 266.1 138.204C265.352 138.401 264.634 138.921 263.946 139.764C263.284 140.6 262.705 141.594 262.208 142.745C261.738 143.889 261.409 145.051 261.224 146.231C261.031 147.384 261.044 148.374 261.261 149.199C261.628 150.592 262.404 151.132 263.59 150.819ZM272.655 150.997C272.242 151.105 271.992 150.992 271.903 150.657C271.863 150.502 271.861 150.337 271.897 150.162C271.96 149.98 272.003 149.831 272.027 149.714L273.673 141.67C274.367 138.233 274.67 136.347 274.582 136.012C274.487 135.651 274.62 135.423 274.981 135.327C275.471 135.198 275.78 135.379 275.909 135.869C275.977 136.127 275.97 136.57 275.887 137.198C275.804 137.827 275.681 138.562 275.517 139.405C275.251 140.909 275.007 142.077 274.785 142.907C275.321 141.801 275.883 140.743 276.472 139.733C277.061 138.723 277.673 137.748 278.308 136.809C280.194 134.023 281.795 132.457 283.11 132.111C284.012 131.873 284.576 132.18 284.8 133.031C285.017 133.856 284.855 134.34 284.313 134.483C284.056 134.551 283.804 134.382 283.56 133.978C283.401 133.689 283.18 133.582 282.896 133.656C282.458 133.772 281.732 134.473 280.72 135.76C279.599 137.158 278.517 138.753 277.472 140.545C276.453 142.33 275.445 144.526 274.45 147.132L273.229 150.349C273.159 150.505 273.083 150.635 273.001 150.74C272.951 150.863 272.835 150.949 272.655 150.997ZM286.923 149.059C286.433 149.188 286.086 148.865 285.883 148.092C285.584 146.957 285.693 144.805 286.209 141.636C286.751 138.46 287.682 134.244 289 128.988C288.02 129.246 287.126 129.619 286.317 130.108C285.527 130.564 285.154 130.98 285.197 131.354C285.199 131.464 285.161 131.585 285.085 131.715C285.028 131.813 284.91 131.885 284.729 131.933C284.317 132.041 284.056 131.889 283.947 131.477C283.771 130.806 284.153 130.113 285.095 129.396C286.037 128.679 287.462 128.069 289.37 127.567L290.878 122.454C290.984 122.123 291.096 121.763 291.214 121.373C291.325 120.958 291.455 120.51 291.604 120.029C291.767 119.6 292.016 119.342 292.351 119.253C292.558 119.199 292.729 119.223 292.867 119.325C292.997 119.401 293.079 119.503 293.113 119.632C293.215 120.019 292.919 121.2 292.226 123.175C291.358 125.637 290.896 126.972 290.84 127.18C291.227 127.078 291.817 126.964 292.611 126.837C293.399 126.685 294.338 126.534 295.429 126.385C295.823 126.309 296.067 126.451 296.162 126.812C296.271 127.225 296.093 127.492 295.629 127.614C295.448 127.662 295.081 127.731 294.525 127.822C293.963 127.888 293.366 127.976 292.734 128.087C292.101 128.199 291.569 128.325 291.138 128.466L290.568 128.658C287.757 139.243 286.661 145.653 287.277 147.89L287.397 148.189L287.418 148.267C287.526 148.679 287.362 148.943 286.923 149.059ZM295.946 157.479C295.12 157.696 294.466 157.565 293.981 157.086C293.477 156.64 293.103 155.952 292.859 155.024C292.302 152.909 292.436 149.386 293.26 144.453C293.129 144.377 293.044 144.262 293.003 144.107C292.935 143.849 293.099 143.53 293.496 143.15C294.136 140.031 294.758 137.261 295.361 134.841C295.984 132.388 296.575 130.288 297.135 128.541C299.042 122.8 301.025 118.651 303.082 116.097C303.349 115.75 303.617 115.459 303.886 115.223C304.155 114.987 304.444 114.828 304.753 114.746C305.166 114.638 305.416 114.751 305.504 115.086C305.552 115.267 305.526 115.481 305.425 115.728C305.344 115.942 305.19 116.3 304.963 116.801C304.692 117.341 304.376 117.975 304.017 118.704C303.651 119.408 303.265 120.143 302.861 120.912C302.482 121.673 302.129 122.373 301.801 123.011C301.465 123.623 301.193 124.108 300.984 124.467L298.394 129.079L297.675 131.377C297.476 131.981 297.25 132.799 296.998 133.831C296.765 134.83 296.485 136.02 296.16 137.402C296.031 137.96 295.862 138.68 295.653 139.562C295.47 140.438 295.26 141.472 295.023 142.665C295.236 142.637 295.43 142.641 295.605 142.677C295.799 142.681 295.984 142.702 296.159 142.738C299.406 140.725 302.243 137.937 304.669 134.375C304.816 134.198 304.954 134.093 305.083 134.059C305.521 133.944 305.791 134.08 305.893 134.466C305.92 134.569 305.909 134.683 305.858 134.806C305.834 134.923 305.797 135.043 305.747 135.167C305.468 135.681 305.04 136.304 304.46 137.036C303.881 137.768 303.131 138.586 302.211 139.49C301.418 140.25 300.641 140.965 299.88 141.634C299.138 142.271 298.404 142.836 297.68 143.33C298.633 144.017 299.289 145.044 299.649 146.41C300.145 148.293 300.106 150.399 299.534 152.728C298.87 155.44 297.673 157.023 295.946 157.479ZM295.408 156.379C296.156 156.182 296.783 155.686 297.291 154.891C297.824 154.088 298.207 153.133 298.439 152.024C298.616 151.232 298.692 150.316 298.666 149.275C298.673 148.253 298.581 147.381 298.391 146.659C298.01 145.215 297.317 144.363 296.312 144.104C295.99 144.244 295.691 144.364 295.414 144.465C295.144 144.591 294.876 144.675 294.612 144.717L294.622 144.756C293.726 150.149 293.512 153.735 293.981 155.514C294.082 155.901 294.26 156.158 294.514 156.284C294.775 156.436 295.073 156.467 295.408 156.379ZM310.946 139.671C308.858 140.221 307.504 139.323 306.886 136.976C306.601 135.893 306.56 134.691 306.763 133.368C306.967 132.046 307.361 130.77 307.947 129.541C308.527 128.285 309.247 127.199 310.109 126.283C310.997 125.36 311.982 124.755 313.065 124.47C314.019 124.219 314.81 124.397 315.439 125.003C316.067 125.61 316.497 126.351 316.728 127.228C317.034 128.389 317.114 129.636 316.969 130.97C316.817 132.279 316.474 133.541 315.94 134.757C315.405 135.974 314.716 137.024 313.874 137.907C313.031 138.791 312.055 139.379 310.946 139.671ZM310.582 138.443C310.736 138.403 310.823 138.366 310.842 138.333C311.814 137.94 312.647 137.334 313.342 136.517C314.037 135.7 314.578 134.771 314.966 133.731C315.373 132.659 315.608 131.563 315.672 130.443C315.736 129.323 315.635 128.261 315.37 127.255C315.214 126.662 314.924 126.242 314.501 125.995C314.077 125.748 313.607 125.692 313.092 125.828C312.344 126.025 311.626 126.545 310.938 127.388C310.276 128.224 309.696 129.218 309.2 130.369C308.729 131.513 308.401 132.675 308.215 133.855C308.023 135.009 308.035 135.998 308.252 136.823C308.619 138.216 309.395 138.756 310.582 138.443ZM325.236 137.231C324.05 137.544 323.04 137.424 322.205 136.871C321.389 136.286 320.822 135.388 320.502 134.176C320.271 133.299 320.148 132.201 320.131 130.882C320.123 128.651 320.4 125.985 320.962 122.887C321.418 120.533 321.961 118.198 322.592 115.881C323.216 113.538 323.966 111.203 324.842 108.877C326.231 105.146 327.364 103.166 328.241 102.935C328.808 102.786 329.133 102.866 329.214 103.175C329.33 103.613 328.896 104.9 327.914 107.033L326.072 111.034C324.473 114.489 323.316 117.896 322.601 121.256C321.912 124.608 321.546 127.876 321.501 131.059C321.493 131.971 321.588 132.801 321.785 133.549C322.301 135.509 323.358 136.278 324.957 135.857C325.525 135.707 326.061 135.387 326.566 134.896C327.077 134.43 327.359 134.19 327.41 134.177C327.72 134.095 327.932 134.274 328.048 134.712C328.15 135.099 328.086 135.433 327.856 135.714C327.116 136.46 326.242 136.966 325.236 137.231ZM334.831 117.29C334.393 117.405 334.116 117.244 334.001 116.806C333.967 116.677 333.996 116.421 334.088 116.038C334.174 115.629 334.285 115.214 334.422 114.792C334.559 114.37 334.675 114.077 334.77 113.914C335.079 113.309 335.333 112.911 335.531 112.721C335.755 112.524 335.97 112.399 336.176 112.344C336.718 112.202 337.053 112.375 337.182 112.865C337.23 113.046 337.171 113.296 337.007 113.615C336.862 113.901 336.675 114.185 336.445 114.466C336.101 114.832 335.897 115.107 335.835 115.288L335.3 116.712C335.301 116.822 335.264 116.942 335.188 117.072C335.131 117.17 335.012 117.242 334.831 117.29ZM332.381 134.688C331.659 134.878 331.093 134.875 330.684 134.68C330.299 134.478 330.033 134.093 329.883 133.526C329.741 132.984 329.715 132.205 329.805 131.188C329.889 130.146 330.047 129.015 330.277 127.796C330.533 126.571 330.829 125.39 331.164 124.254C331.499 123.117 331.856 122.169 332.234 121.407C332.632 120.613 332.998 120.172 333.334 120.084C333.798 119.961 334.084 120.106 334.193 120.519C334.261 120.777 334.171 121.325 333.922 122.162C333.674 123 333.394 123.873 333.082 124.783C332.95 125.121 332.769 125.582 332.537 126.167C332.305 126.752 332.079 127.308 331.859 127.835C331.632 128.336 331.488 128.677 331.426 128.859C331.27 129.314 331.165 130.017 331.112 130.968C331.034 131.926 331.056 132.638 331.178 133.102C331.232 133.308 331.312 133.453 331.416 133.535C331.547 133.611 331.779 133.605 332.115 133.517C332.759 133.347 333.427 132.951 334.118 132.328C334.808 131.704 335.485 130.975 336.147 130.139C336.803 129.277 337.403 128.415 337.948 127.555C338.52 126.687 338.999 125.941 339.385 125.315C339.461 125.184 339.603 125.092 339.809 125.038C340.196 124.936 340.43 125.04 340.511 125.349C340.586 125.633 340.49 126.003 340.224 126.459C339.712 127.338 339.23 128.127 338.779 128.825C338.329 129.523 337.887 130.149 337.454 130.704C336.766 131.547 335.974 132.362 335.079 133.15C334.183 133.937 333.284 134.45 332.381 134.688ZM343.055 131.215C340.966 131.765 339.612 130.867 338.994 128.52C338.709 127.437 338.668 126.234 338.872 124.912C339.075 123.59 339.47 122.314 340.056 121.085C340.635 119.829 341.356 118.743 342.217 117.827C343.105 116.903 344.09 116.299 345.173 116.014C346.127 115.763 346.919 115.94 347.547 116.547C348.176 117.154 348.605 117.895 348.836 118.772C349.142 119.932 349.222 121.18 349.077 122.514C348.926 123.823 348.582 125.085 348.048 126.301C347.513 127.517 346.825 128.567 345.982 129.451C345.139 130.335 344.163 130.923 343.055 131.215ZM342.69 129.987C342.845 129.946 342.932 129.91 342.951 129.877C343.922 129.483 344.756 128.878 345.45 128.061C346.145 127.243 346.686 126.315 347.074 125.275C347.481 124.203 347.717 123.107 347.78 121.987C347.844 120.867 347.743 119.804 347.478 118.799C347.322 118.206 347.032 117.786 346.609 117.539C346.185 117.292 345.716 117.236 345.2 117.372C344.452 117.569 343.734 118.089 343.046 118.932C342.384 119.768 341.805 120.762 341.308 121.913C340.837 123.057 340.509 124.219 340.323 125.399C340.131 126.552 340.143 127.542 340.361 128.367C340.727 129.76 341.504 130.3 342.69 129.987Z" fill="white" fill-opacity="0.5"/>
<mask id="mask0_39_275" style="mask-type:alpha" maskUnits="userSpaceOnUse" x="0" y="0" width="309" height="137">
<path d="M43.24 61.2L39.46 49.23H18.49L14.71 61.2H4L24.43 0H33.97L54.49 61.2H43.24ZM24.34 30.51L21.55 39.33H36.31L33.52 30.51L29.02 15.03L24.34 30.51Z" fill="#34344B"/>
<path d="M98.24 74.2L78.8 135.4H67.73L43.24 61.2L54.493 61.2L68.7 104.89L73.58 120.82L78.08 104.89L87.26 74.2H98.24Z" fill="#34344B"/>
<path d="M39.24 61.2L35.46 49.23H14.49L10.71 61.2H0L20.43 0H29.97L50.49 61.2H39.24ZM20.34 30.51L17.55 39.33H32.31L29.52 30.51L25.02 15.03L20.34 30.51Z" fill="white"/>
<path d="M86.1033 61.2V55.17C83.3433 57.57 80.7633 59.34 78.3633 60.48C75.9633 61.56 73.5333 62.1 71.0733 62.1C66.9933 62.1 63.8433 60.72 61.6233 57.96C59.4033 55.14 58.2933 51.21 58.2933 46.17V15.57H68.6433V44.91C68.6433 49.95 70.5033 52.47 74.2233 52.47C75.7233 52.47 77.3433 52.11 79.0833 51.39C80.8833 50.67 83.0433 49.29 85.5633 47.25V15.57H95.9133V61.2H86.1033Z" fill="white"/>
<path d="M135.904 25.02C133.084 25.02 130.384 25.47 127.804 26.37C125.284 27.21 122.854 28.59 120.514 30.51V61.2H110.164V15.57H119.974V22.59C123.034 19.71 125.764 17.67 128.164 16.47C130.564 15.27 133.144 14.67 135.904 14.67V25.02Z" fill="white"/>
<path d="M182.318 35.64V41.04C182.318 47.4 180.578 52.5 177.098 56.34C173.618 60.18 168.698 62.1 162.338 62.1C155.978 62.1 151.058 60.18 147.578 56.34C144.098 52.5 142.358 47.4 142.358 41.04V35.64C142.358 29.28 144.068 24.21 147.488 20.43C150.968 16.59 155.918 14.67 162.338 14.67C168.758 14.67 173.678 16.59 177.098 20.43C180.578 24.21 182.318 29.28 182.318 35.64ZM171.698 35.64C171.698 31.98 170.888 29.13 169.268 27.09C167.648 24.99 165.338 23.94 162.338 23.94C159.338 23.94 157.028 24.99 155.408 27.09C153.788 29.13 152.978 31.98 152.978 35.64V41.04C152.978 44.7 153.788 47.58 155.408 49.68C157.028 51.78 159.338 52.83 162.338 52.83C165.338 52.83 167.648 51.78 169.268 49.68C170.888 47.58 171.698 44.7 171.698 41.04V35.64Z" fill="white"/>
<path d="M219.663 25.02C216.843 25.02 214.143 25.47 211.563 26.37C209.043 27.21 206.613 28.59 204.273 30.51V61.2H193.923V15.57H203.733V22.59C206.793 19.71 209.523 17.67 211.923 16.47C214.323 15.27 216.903 14.67 219.663 14.67V25.02Z" fill="white"/>
<path d="M263.378 58.59C260.258 59.85 257.318 60.75 254.558 61.29C251.798 61.83 249.188 62.1 246.728 62.1C239.948 62.1 234.818 60.18 231.338 56.34C227.858 52.5 226.118 47.4 226.118 41.04V35.64C226.118 31.38 226.898 27.69 228.458 24.57C230.018 21.45 232.238 19.02 235.118 17.28C237.998 15.54 241.388 14.67 245.288 14.67C248.468 14.67 251.438 15.33 254.198 16.65C257.018 17.91 259.298 19.92 261.038 22.68C262.838 25.38 263.738 28.86 263.738 33.12C263.738 34.38 263.648 35.73 263.468 37.17C263.288 38.55 262.988 40.02 262.568 41.58H236.108C236.228 45.3 237.158 48.09 238.898 49.95C240.638 51.81 243.428 52.74 247.268 52.74C249.308 52.74 251.408 52.5 253.568 52.02C255.788 51.54 258.068 50.82 260.408 49.86L263.378 58.59ZM245.288 23.4C242.528 23.4 240.368 24.3 238.808 26.1C237.308 27.84 236.438 30.36 236.198 33.66H253.478C253.538 33.36 253.568 33.09 253.568 32.85C253.568 32.55 253.568 32.28 253.568 32.04C253.568 29.16 252.758 27 251.138 25.56C249.518 24.12 247.568 23.4 245.288 23.4Z" fill="white"/>
<path d="M94.24 74.2L74.8 135.4H63.73L39.24 61.2L50.493 61.2L64.7 104.89L69.58 120.82L74.08 104.89L83.26 74.2H94.24Z" fill="white"/>
<path d="M134.095 132.79C130.975 134.05 128.035 134.95 125.275 135.49C122.515 136.03 119.905 136.3 117.445 136.3C110.665 136.3 105.535 134.38 102.055 130.54C98.5745 126.7 96.8345 121.6 96.8345 115.24V109.84C96.8345 105.58 97.6145 101.89 99.1745 98.77C100.735 95.65 102.955 93.22 105.835 91.48C108.715 89.74 112.105 88.87 116.005 88.87C119.185 88.87 122.155 89.53 124.915 90.85C127.735 92.11 130.015 94.12 131.755 96.88C133.555 99.58 134.455 103.06 134.455 107.32C134.455 108.58 134.365 109.93 134.185 111.37C134.005 112.75 133.705 114.22 133.285 115.78H106.825C106.945 119.5 107.875 122.29 109.615 124.15C111.355 126.01 114.145 126.94 117.985 126.94C120.025 126.94 122.125 126.7 124.285 126.22C126.505 125.74 128.785 125.02 131.125 124.06L134.095 132.79ZM116.005 97.6C113.245 97.6 111.085 98.5 109.525 100.3C108.025 102.04 107.155 104.56 106.915 107.86H124.195C124.255 107.56 124.285 107.29 124.285 107.05C124.285 106.75 124.285 106.48 124.285 106.24C124.285 103.36 123.475 101.2 121.855 99.76C120.235 98.32 118.285 97.6 116.005 97.6Z" fill="white"/>
<path d="M172.118 99.22C169.298 99.22 166.598 99.67 164.018 100.57C161.498 101.41 159.068 102.79 156.728 104.71V135.4H146.378V89.77H156.188V96.79C159.248 93.91 161.978 91.87 164.378 90.67C166.778 89.47 169.358 88.87 172.118 88.87V99.22Z" fill="white"/>
<path d="M203.503 98.5C202.003 98.5 200.293 98.86 198.373 99.58C196.453 100.3 194.173 101.71 191.533 103.81V135.4H181.183V89.77H190.993V95.89C193.813 93.43 196.483 91.66 199.003 90.58C201.523 89.44 204.073 88.87 206.653 88.87C211.033 88.87 214.363 90.28 216.643 93.1C218.923 95.86 220.063 99.76 220.063 104.8V135.4H209.713V106.06C209.713 101.02 207.643 98.5 203.503 98.5Z" fill="white"/>
<path d="M268.391 132.79C265.271 134.05 262.331 134.95 259.571 135.49C256.811 136.03 254.201 136.3 251.741 136.3C244.961 136.3 239.831 134.38 236.351 130.54C232.871 126.7 231.131 121.6 231.131 115.24V109.84C231.131 105.58 231.911 101.89 233.471 98.77C235.031 95.65 237.251 93.22 240.131 91.48C243.011 89.74 246.401 88.87 250.301 88.87C253.481 88.87 256.451 89.53 259.211 90.85C262.031 92.11 264.311 94.12 266.051 96.88C267.851 99.58 268.751 103.06 268.751 107.32C268.751 108.58 268.661 109.93 268.481 111.37C268.301 112.75 268.001 114.22 267.581 115.78H241.121C241.241 119.5 242.171 122.29 243.911 124.15C245.651 126.01 248.441 126.94 252.281 126.94C254.321 126.94 256.421 126.7 258.581 126.22C260.801 125.74 263.081 125.02 265.421 124.06L268.391 132.79ZM250.301 97.6C247.541 97.6 245.381 98.5 243.821 100.3C242.321 102.04 241.451 104.56 241.211 107.86H258.491C258.551 107.56 258.581 107.29 258.581 107.05C258.581 106.75 258.581 106.48 258.581 106.24C258.581 103.36 257.771 101.2 256.151 99.76C254.531 98.32 252.581 97.6 250.301 97.6Z" fill="white"/>
<path d="M308.125 133.87C306.565 134.59 304.765 135.16 302.725 135.58C300.685 136.06 298.615 136.3 296.515 136.3C293.035 136.3 290.245 135.58 288.145 134.14C286.045 132.7 284.515 130.69 283.555 128.11C282.655 125.53 282.205 122.59 282.205 119.29V98.77H274.825V89.77H282.205V77.89H292.555V89.77H306.775V98.77H292.555V119.29C292.555 122.05 293.065 123.97 294.085 125.05C295.165 126.07 296.695 126.58 298.675 126.58C299.635 126.58 300.655 126.49 301.735 126.31C302.875 126.07 304.135 125.68 305.515 125.14L308.125 133.87Z" fill="white"/>
</mask>
<g mask="url(#mask0_39_275)">
<path d="M245.879 168.426C244.667 168.745 243.834 168.041 243.379 166.313C242.782 164.044 242.824 160.172 243.506 154.698C243.624 153.784 243.796 152.815 244.023 151.79C244.249 150.766 244.54 149.669 244.894 148.5C245.253 147.247 245.612 146.147 245.968 145.198C246.351 144.242 246.697 143.462 247.007 142.856C247.121 142.661 247.222 142.524 247.312 142.445C247.427 142.359 247.524 142.307 247.601 142.286C248.271 142.11 249.083 142.103 250.036 142.266C250.989 142.428 251.879 142.718 252.705 143.135C253.46 143.487 254.126 143.974 254.703 144.594C255.28 145.214 255.67 145.911 255.874 146.685C256.023 147.252 256.06 147.863 255.984 148.517C255.927 149.139 255.792 149.781 255.581 150.443C256.217 150.138 256.952 149.627 257.783 148.912C258.641 148.19 259.447 147.219 260.202 146C260.278 145.87 260.406 145.781 260.587 145.734C260.973 145.632 261.208 145.736 261.289 146.045C261.323 146.174 261.303 146.359 261.228 146.599C261.172 146.806 261.04 147.089 260.831 147.448C259.384 149.704 257.354 151.314 254.74 152.278C254.462 152.792 254.142 153.304 253.779 153.813C253.436 154.289 253.06 154.747 252.652 155.185C251.393 156.482 250.236 157.269 249.178 157.547C248.74 157.663 248.342 157.616 247.983 157.407C247.625 157.198 247.398 156.913 247.303 156.552C246.991 155.366 247.785 154.192 249.685 153.03C250.378 152.626 251.079 152.249 251.786 151.897C252.493 151.546 253.184 151.185 253.858 150.814C254.164 149.879 254.354 149.084 254.43 148.43C254.532 147.769 254.528 147.232 254.42 146.819C254.06 145.453 252.699 144.419 250.335 143.717C249.407 143.438 248.714 143.372 248.257 143.52C246.753 146.398 245.61 150.173 244.827 154.846C244.001 159.669 243.914 163.318 244.566 165.794C244.722 166.387 244.879 166.773 245.036 166.952C245.194 167.131 245.402 167.187 245.659 167.119C245.737 167.098 245.798 167.069 245.843 167.029C245.894 167.016 245.946 167.002 245.997 166.988C246.333 166.9 246.555 167.062 246.663 167.475C246.785 167.939 246.524 168.256 245.879 168.426ZM249.123 156.238C250.078 155.987 251.26 154.876 252.672 152.905C252.273 153.065 251.89 153.235 251.523 153.414C251.183 153.587 250.691 153.868 250.05 154.257C248.977 154.898 248.509 155.476 248.645 155.992C248.706 156.224 248.866 156.306 249.123 156.238ZM263.953 152.044C261.865 152.594 260.511 151.696 259.893 149.349C259.608 148.266 259.567 147.064 259.771 145.742C259.974 144.42 260.369 143.144 260.955 141.914C261.535 140.658 262.255 139.572 263.117 138.656C264.005 137.733 264.99 137.129 266.073 136.844C267.027 136.593 267.819 136.77 268.447 137.377C269.076 137.984 269.505 138.725 269.736 139.602C270.042 140.763 270.122 142.01 269.977 143.344C269.825 144.653 269.482 145.915 268.947 147.131C268.412 148.347 267.724 149.397 266.881 150.281C266.038 151.165 265.062 151.752 263.953 152.044ZM263.589 150.817C263.744 150.776 263.83 150.739 263.849 150.707C264.821 150.313 265.654 149.708 266.349 148.89C267.044 148.073 267.586 147.145 267.974 146.105C268.381 145.033 268.616 143.937 268.68 142.817C268.743 141.697 268.643 140.634 268.378 139.629C268.222 139.036 267.932 138.616 267.509 138.369C267.085 138.122 266.615 138.066 266.1 138.202C265.352 138.399 264.634 138.919 263.946 139.762C263.284 140.598 262.704 141.591 262.208 142.742C261.737 143.887 261.408 145.048 261.223 146.228C261.03 147.382 261.042 148.371 261.259 149.196C261.626 150.589 262.403 151.129 263.589 150.817ZM272.653 150.995C272.241 151.103 271.99 150.99 271.902 150.655C271.861 150.5 271.859 150.335 271.896 150.16C271.958 149.978 272.002 149.829 272.026 149.712L273.672 141.668C274.367 138.231 274.67 136.345 274.582 136.01C274.486 135.649 274.619 135.421 274.981 135.326C275.47 135.197 275.78 135.377 275.909 135.867C275.977 136.125 275.969 136.568 275.887 137.197C275.804 137.825 275.681 138.561 275.516 139.404C275.251 140.908 275.006 142.075 274.784 142.906C275.32 141.8 275.882 140.741 276.471 139.732C277.06 138.722 277.672 137.747 278.307 136.808C280.194 134.022 281.794 132.456 283.11 132.11C284.012 131.873 284.576 132.179 284.8 133.03C285.017 133.856 284.855 134.339 284.313 134.482C284.055 134.55 283.804 134.382 283.56 133.977C283.401 133.688 283.18 133.581 282.896 133.656C282.458 133.771 281.732 134.472 280.72 135.759C279.599 137.157 278.516 138.752 277.471 140.544C276.452 142.329 275.444 144.524 274.448 147.13L273.227 150.347C273.158 150.503 273.082 150.634 272.999 150.738C272.949 150.862 272.834 150.947 272.653 150.995ZM286.922 149.058C286.432 149.187 286.085 148.865 285.881 148.091C285.583 146.957 285.692 144.805 286.208 141.635C286.751 138.459 287.682 134.243 289 128.988C288.02 129.246 287.126 129.619 286.317 130.108C285.527 130.564 285.154 130.979 285.197 131.354C285.199 131.464 285.161 131.584 285.086 131.714C285.029 131.812 284.91 131.884 284.729 131.932C284.317 132.041 284.056 131.889 283.947 131.476C283.771 130.806 284.154 130.112 285.095 129.395C286.037 128.678 287.462 128.069 289.371 127.566L290.879 122.454C290.985 122.123 291.097 121.762 291.215 121.373C291.326 120.958 291.456 120.51 291.605 120.029C291.768 119.6 292.017 119.342 292.352 119.253C292.559 119.199 292.73 119.223 292.868 119.325C292.998 119.401 293.08 119.503 293.114 119.632C293.216 120.019 292.92 121.2 292.227 123.175C291.358 125.637 290.896 126.972 290.841 127.179C291.227 127.078 291.818 126.964 292.612 126.837C293.399 126.685 294.338 126.534 295.43 126.385C295.823 126.309 296.067 126.451 296.163 126.812C296.271 127.225 296.093 127.492 295.629 127.615C295.449 127.662 295.081 127.731 294.526 127.822C293.964 127.888 293.367 127.976 292.734 128.087C292.102 128.199 291.57 128.325 291.138 128.466L290.568 128.658C287.757 139.242 286.66 145.653 287.276 147.889L287.396 148.189L287.416 148.266C287.525 148.679 287.36 148.943 286.922 149.058ZM295.944 157.479C295.118 157.696 294.464 157.565 293.979 157.086C293.475 156.639 293.101 155.952 292.857 155.024C292.3 152.909 292.434 149.386 293.259 144.453C293.129 144.377 293.043 144.262 293.002 144.107C292.934 143.849 293.099 143.53 293.495 143.15C294.135 140.031 294.757 137.261 295.361 134.841C295.984 132.388 296.575 130.289 297.136 128.542C299.043 122.8 301.026 118.652 303.083 116.097C303.35 115.751 303.619 115.46 303.887 115.224C304.156 114.988 304.445 114.829 304.754 114.747C305.167 114.639 305.418 114.752 305.506 115.087C305.553 115.268 305.527 115.481 305.426 115.728C305.345 115.943 305.191 116.301 304.964 116.801C304.693 117.342 304.378 117.976 304.018 118.705C303.652 119.408 303.266 120.144 302.862 120.912C302.483 121.674 302.13 122.374 301.801 123.011C301.466 123.624 301.194 124.109 300.985 124.467L298.394 129.079L297.675 131.378C297.476 131.982 297.25 132.799 296.998 133.831C296.764 134.83 296.485 136.02 296.159 137.402C296.03 137.96 295.861 138.68 295.653 139.562C295.469 140.438 295.259 141.472 295.022 142.665C295.235 142.637 295.429 142.641 295.604 142.677C295.798 142.681 295.983 142.702 296.158 142.738C299.406 140.725 302.243 137.938 304.669 134.376C304.816 134.199 304.953 134.094 305.082 134.06C305.521 133.945 305.791 134.08 305.893 134.467C305.92 134.57 305.908 134.684 305.858 134.807C305.834 134.924 305.796 135.044 305.746 135.168C305.468 135.682 305.039 136.305 304.46 137.037C303.88 137.768 303.13 138.586 302.21 139.49C301.418 140.251 300.641 140.965 299.879 141.634C299.137 142.271 298.403 142.837 297.679 143.331C298.632 144.017 299.288 145.044 299.648 146.411C300.143 148.293 300.105 150.399 299.532 152.728C298.868 155.44 297.671 157.024 295.944 157.479ZM295.406 156.379C296.154 156.182 296.782 155.686 297.289 154.891C297.822 154.089 298.205 153.133 298.437 152.024C298.615 151.233 298.691 150.317 298.665 149.276C298.671 148.253 298.58 147.381 298.39 146.659C298.009 145.215 297.316 144.364 296.311 144.105C295.989 144.244 295.69 144.364 295.413 144.465C295.143 144.591 294.875 144.675 294.611 144.718L294.621 144.756C293.724 150.149 293.51 153.735 293.979 155.514C294.081 155.901 294.258 156.158 294.512 156.284C294.773 156.436 295.071 156.468 295.406 156.379ZM310.946 139.672C308.857 140.222 307.504 139.324 306.886 136.977C306.601 135.894 306.56 134.692 306.763 133.37C306.967 132.047 307.361 130.772 307.948 129.542C308.527 128.286 309.248 127.2 310.11 126.284C310.997 125.361 311.982 124.757 313.065 124.472C314.02 124.22 314.811 124.398 315.439 125.005C316.068 125.611 316.498 126.353 316.728 127.23C317.034 128.39 317.114 129.638 316.969 130.972C316.817 132.28 316.474 133.543 315.939 134.759C315.405 135.975 314.716 137.025 313.873 137.909C313.03 138.793 312.055 139.38 310.946 139.672ZM310.581 138.445C310.736 138.404 310.823 138.367 310.842 138.335C311.814 137.941 312.647 137.336 313.342 136.518C314.037 135.701 314.578 134.773 314.966 133.733C315.373 132.661 315.609 131.565 315.672 130.445C315.736 129.325 315.635 128.262 315.371 127.257C315.214 126.664 314.925 126.243 314.501 125.996C314.078 125.749 313.608 125.694 313.092 125.83C312.344 126.027 311.626 126.546 310.938 127.389C310.276 128.226 309.697 129.219 309.2 130.37C308.729 131.515 308.401 132.676 308.215 133.856C308.022 135.01 308.035 135.999 308.252 136.824C308.618 138.217 309.395 138.757 310.581 138.445ZM325.236 137.234C324.05 137.546 323.039 137.426 322.205 136.874C321.389 136.289 320.821 135.39 320.502 134.178C320.271 133.301 320.148 132.203 320.131 130.884C320.123 128.653 320.4 125.988 320.963 122.889C321.419 120.535 321.962 118.2 322.593 115.883C323.217 113.54 323.967 111.206 324.844 108.879C326.233 105.149 327.367 103.169 328.243 102.938C328.811 102.788 329.135 102.868 329.217 103.178C329.332 103.616 328.899 104.902 327.916 107.036L326.074 111.037C324.474 114.491 323.317 117.898 322.602 121.258C321.913 124.61 321.546 127.878 321.501 131.061C321.493 131.973 321.588 132.803 321.785 133.551C322.301 135.511 323.358 136.28 324.957 135.859C325.524 135.71 326.06 135.39 326.565 134.898C327.077 134.433 327.359 134.193 327.41 134.179C327.72 134.098 327.932 134.276 328.047 134.715C328.149 135.102 328.086 135.436 327.856 135.717C327.115 136.463 326.242 136.969 325.236 137.234ZM334.833 117.293C334.394 117.409 334.117 117.247 334.002 116.809C333.968 116.68 333.997 116.424 334.089 116.041C334.175 115.633 334.286 115.217 334.423 114.795C334.56 114.373 334.676 114.08 334.771 113.918C335.081 113.312 335.334 112.914 335.532 112.724C335.756 112.528 335.972 112.402 336.178 112.348C336.719 112.205 337.055 112.379 337.184 112.869C337.231 113.049 337.173 113.299 337.009 113.618C336.863 113.904 336.676 114.188 336.447 114.469C336.102 114.836 335.899 115.11 335.836 115.292L335.301 116.715C335.302 116.825 335.265 116.945 335.189 117.075C335.132 117.173 335.013 117.246 334.833 117.293ZM332.381 134.691C331.659 134.881 331.093 134.878 330.683 134.683C330.299 134.48 330.032 134.096 329.883 133.528C329.74 132.987 329.715 132.208 329.805 131.191C329.889 130.149 330.047 129.018 330.277 127.799C330.534 126.574 330.83 125.393 331.165 124.257C331.5 123.12 331.857 122.172 332.235 121.41C332.633 120.616 332.999 120.175 333.335 120.087C333.799 119.964 334.085 120.11 334.194 120.522C334.262 120.78 334.171 121.328 333.923 122.165C333.675 123.003 333.395 123.876 333.083 124.786C332.951 125.124 332.769 125.585 332.537 126.17C332.305 126.755 332.079 127.311 331.859 127.838C331.633 128.339 331.488 128.68 331.426 128.862C331.27 129.317 331.165 130.02 331.112 130.971C331.034 131.929 331.056 132.641 331.178 133.105C331.232 133.311 331.312 133.456 331.416 133.538C331.546 133.614 331.779 133.608 332.114 133.52C332.759 133.35 333.427 132.954 334.118 132.331C334.808 131.708 335.485 130.978 336.147 130.142C336.803 129.28 337.403 128.419 337.949 127.558C338.52 126.691 338.999 125.944 339.386 125.318C339.462 125.188 339.603 125.096 339.809 125.041C340.196 124.94 340.43 125.043 340.512 125.353C340.586 125.637 340.491 126.006 340.225 126.462C339.712 127.342 339.23 128.131 338.78 128.828C338.329 129.526 337.887 130.153 337.454 130.708C336.766 131.551 335.974 132.366 335.079 133.153C334.183 133.941 333.284 134.453 332.381 134.691ZM343.055 131.219C340.966 131.769 339.613 130.87 338.995 128.524C338.71 127.441 338.669 126.238 338.872 124.916C339.076 123.594 339.47 122.318 340.057 121.088C340.636 119.833 341.357 118.747 342.218 117.83C343.106 116.907 344.091 116.303 345.174 116.018C346.129 115.767 346.92 115.945 347.548 116.551C348.177 117.158 348.607 117.9 348.837 118.776C349.143 119.937 349.223 121.184 349.078 122.518C348.926 123.827 348.583 125.089 348.048 126.305C347.514 127.522 346.825 128.572 345.982 129.455C345.139 130.339 344.164 130.927 343.055 131.219ZM342.69 129.991C342.845 129.95 342.932 129.914 342.951 129.881C343.922 129.487 344.756 128.882 345.451 128.065C346.145 127.248 346.687 126.319 347.075 125.279C347.482 124.207 347.717 123.111 347.781 121.991C347.845 120.872 347.744 119.809 347.479 118.803C347.323 118.21 347.033 117.79 346.61 117.543C346.186 117.296 345.717 117.24 345.201 117.376C344.453 117.573 343.735 118.093 343.047 118.936C342.385 119.772 341.805 120.766 341.309 121.917C340.838 123.061 340.51 124.223 340.324 125.402C340.131 126.556 340.144 127.546 340.361 128.371C340.727 129.763 341.504 130.303 342.69 129.991Z" fill="#34344B"/>
</g>
</svg>
