<svg width="91" height="81" viewBox="0 0 91 81" fill="none" xmlns="http://www.w3.org/2000/svg">
<path d="M0.902344 10.3964C0.902344 4.87358 5.3795 0.396423 10.9023 0.396423H70.9023C76.4252 0.396423 80.9023 4.87358 80.9023 10.3964V70.3964C80.9023 75.9193 76.4252 80.3964 70.9023 80.3964H10.9023C5.3795 80.3964 0.902344 75.9193 0.902344 70.3964V10.3964Z" fill="#F5F5F5"/>
<path d="M40.5704 42.8877C40.6647 41.2463 41.4691 39.7977 42.6838 38.7717C43.9582 37.7132 45.5657 37.139 47.2224 37.1508C48.9665 37.1508 50.569 37.7663 51.7591 38.7717C52.9738 39.7977 53.776 41.2463 53.8684 42.8857C53.9607 44.5743 53.2836 46.1399 52.0935 47.3033C50.7827 48.5552 49.0349 49.2458 47.2224 49.2279C45.4087 49.246 43.6596 48.5554 42.3473 47.3033C41.1572 46.1399 40.478 44.5743 40.5704 42.8877ZM29.9828 46.2056C29.9951 46.8498 30.2003 48.0974 30.5081 49.074C31.1725 51.1753 32.2881 53.106 33.7767 54.731C35.3731 56.4862 37.3217 57.8852 39.4952 58.8367C41.8607 59.8795 44.4198 60.4109 47.0049 60.3961C49.5897 60.4012 52.1464 59.8615 54.5085 58.8121C56.6805 57.8516 58.6271 56.4467 60.2229 54.6879C61.7091 53.0575 62.8236 51.1239 63.4895 49.0207C64.1297 46.983 64.305 44.8277 64.0024 42.7133C63.7143 40.6877 63.0041 38.7451 61.9178 37.0112C60.9113 35.3984 59.6244 33.9787 58.1177 32.8193H58.1218L42.7371 21.0069L42.6961 20.9761C41.6866 20.2005 39.9897 20.2046 38.8796 20.9802C37.7573 21.764 37.6301 23.0628 38.6273 23.8835L38.6252 23.8856L45.0393 29.1034L25.4852 29.124H25.4585C23.8417 29.126 22.2884 30.1868 21.9806 31.5287C21.6647 32.8932 22.7603 34.0258 24.4429 34.032V34.0361L34.3533 34.0155L16.6664 47.5926L16.5966 47.6439C14.9284 48.9202 14.3909 51.0459 15.4414 52.3898C16.5084 53.7584 18.7757 53.7605 20.4623 52.398L30.1142 44.5005C30.1142 44.5005 29.9705 45.5674 29.9828 46.2056ZM54.7896 49.7778C52.7994 51.8051 50.017 52.9541 47.0029 52.9582C43.9867 52.9664 41.2023 51.8256 39.212 49.8024C38.2723 48.859 37.5472 47.7238 37.0863 46.4744C36.664 45.2989 36.4971 44.0468 36.5969 42.8017C36.6967 41.5566 37.0608 40.3472 37.6649 39.2539C38.266 38.1733 39.0691 37.2183 40.0307 36.4408C41.9636 34.865 44.4237 34.0135 46.9988 34.0094C49.5759 34.0053 52.0361 34.8506 53.971 36.4203C54.9558 37.2226 55.7561 38.1726 56.3347 39.2252C56.9336 40.3038 57.2986 41.4965 57.4057 42.7256C57.5145 43.9852 57.3471 45.2533 56.9154 46.4415C56.4544 47.6928 55.7282 48.8305 54.7896 49.7778Z" fill="#E87D0D"/>
<path d="M90.9023 70.3964C90.9023 75.9193 86.4252 80.3964 80.9023 80.3964C75.3795 80.3964 70.9023 75.9193 70.9023 70.3964C70.9023 64.8736 75.3795 60.3964 80.9023 60.3964C86.4252 60.3964 90.9023 64.8736 90.9023 70.3964Z" fill="#FF9A00"/>
</svg>
