<svg width="88" height="81" viewBox="0 0 88 81" fill="none" xmlns="http://www.w3.org/2000/svg">
<path d="M0.0976562 12.1037C0.0976562 6.7156 4.46561 2.34764 9.85375 2.34764H68.3903C73.7785 2.34764 78.1464 6.7156 78.1464 12.1037V70.6403C78.1464 76.0285 73.7785 80.3964 68.3903 80.3964H9.85375C4.46561 80.3964 0.0976562 76.0285 0.0976562 70.6403V12.1037Z" fill="#F5F5F5"/>
<path d="M29.0407 70.6403C31.542 70.6403 33.9408 69.6467 35.7094 67.8781C37.478 66.1094 38.4716 63.7107 38.4716 61.2094V51.7785H29.0407C26.5395 51.7785 24.1407 52.7721 22.3721 54.5408C20.6035 56.3094 19.6099 58.7082 19.6099 61.2094C19.6099 63.7107 20.6035 66.1094 22.3721 67.8781C24.1407 69.6467 26.5395 70.6403 29.0407 70.6403Z" fill="#0ACF83"/>
<path d="M19.6099 42.3477C19.6099 39.8464 20.6035 37.4476 22.3721 35.679C24.1407 33.9104 26.5395 32.9168 29.0407 32.9168H38.4716V51.7785H29.0407C26.5395 51.7785 24.1407 50.7849 22.3721 49.0163C20.6035 47.2477 19.6099 44.8489 19.6099 42.3477Z" fill="#A259FF"/>
<path d="M19.6099 23.4859C19.6099 20.9859 20.6024 18.5882 22.3695 16.8198C24.1365 15.0514 26.5334 14.0569 29.0334 14.055H38.4643V32.9167L29.0407 32.9168C26.5395 32.9168 24.1407 31.9231 22.3721 30.1545C20.6035 28.3859 19.6099 25.9871 19.6099 23.4859Z" fill="#F24E1E"/>
<path d="M38.4716 14.055H47.9025C50.4037 14.055 52.8025 15.0486 54.5711 16.8172C56.3397 18.5858 57.3333 20.9846 57.3333 23.4859C57.3333 25.9871 56.3397 28.3859 54.5711 30.1545C52.8025 31.9231 50.4037 32.9167 47.9025 32.9167L38.4716 32.9168L38.4716 14.055Z" fill="#FF7262"/>
<path d="M57.3333 42.3477C57.3333 44.8489 56.3397 47.2477 54.5711 49.0163C52.8025 50.7849 50.4037 51.7785 47.9025 51.7785C45.4012 51.7785 43.0024 50.7849 41.2338 49.0163C39.4652 47.2477 38.4716 44.8489 38.4716 42.3477C38.4716 39.8464 39.4652 37.4476 41.2338 35.679C43.0024 33.9104 45.4012 32.9167 47.9025 32.9167C50.4037 32.9167 52.8025 33.9104 54.5711 35.679C56.3397 37.4476 57.3333 39.8464 57.3333 42.3477Z" fill="#1ABCFE"/>
<path d="M87.9025 70.6403C87.9025 76.0285 83.5346 80.3964 78.1464 80.3964C72.7583 80.3964 68.3903 76.0285 68.3903 70.6403C68.3903 65.2522 72.7583 60.8842 78.1464 60.8842C83.5346 60.8842 87.9025 65.2522 87.9025 70.6403Z" fill="#DDC02C"/>
<path d="M85.8192 1.59718C83.522 -0.233361 80.1055 0.0959008 77.997 2.13027L77.1711 2.92599L76.3453 2.13027C74.2409 0.0959008 70.8203 -0.233361 68.5231 1.59718C65.8905 3.69819 65.7521 7.46902 68.108 9.74642L76.2196 17.5782C76.7436 18.0838 77.5945 18.0838 78.1185 17.5782L86.23 9.74642C88.5901 7.46902 88.4518 3.69819 85.8192 1.59718Z" fill="#FF6F6F"/>
</svg>
