<svg width="91" height="81" viewBox="0 0 91 81" fill="none" xmlns="http://www.w3.org/2000/svg">
<path d="M0.902344 10.3964C0.902344 4.87358 5.3795 0.396423 10.9023 0.396423H70.9023C76.4252 0.396423 80.9023 4.87358 80.9023 10.3964V70.3964C80.9023 75.9193 76.4252 80.3964 70.9023 80.3964H10.9023C5.3795 80.3964 0.902344 75.9193 0.902344 70.3964V10.3964Z" fill="#F5F5F5"/>
<path d="M21.5273 10.3964H60.2773C66.1523 10.3964 70.9023 15.2682 70.9023 21.2939V59.499C70.9023 65.5246 66.1523 70.3964 60.2773 70.3964H21.5273C15.6523 70.3964 10.9023 65.5246 10.9023 59.499V21.2939C10.9023 15.2682 15.6523 10.3964 21.5273 10.3964Z" fill="#330000"/>
<path d="M39.9773 46.3964H30.6773L28.7773 52.4221C28.7273 52.6528 28.5273 52.8067 28.3023 52.781H23.6023C23.3273 52.781 23.2523 52.6272 23.3273 52.3195L31.3773 28.5503C31.4523 28.2939 31.5273 28.0118 31.6273 27.7041C31.7273 27.1657 31.7773 26.6016 31.7773 26.0374C31.7523 25.9092 31.8523 25.781 31.9773 25.7554C32.0023 25.7554 32.0273 25.7554 32.0523 25.7554H38.4523C38.6523 25.7554 38.7523 25.8323 38.7773 25.9605L47.9023 52.3708C47.9773 52.6528 47.9023 52.781 47.6523 52.781H42.4273C42.2523 52.8067 42.0773 52.6785 42.0273 52.499L39.9773 46.3964ZM32.1273 41.1913H38.4773C38.3273 40.6528 38.1273 40.0118 37.9023 39.3451C37.6773 38.6528 37.4523 37.9092 37.2273 37.14C36.9773 36.3451 36.7523 35.5759 36.5023 34.781C36.2523 33.9862 36.0273 33.2426 35.8273 32.499C35.6273 31.781 35.4523 31.1144 35.2773 30.499H35.2273C35.0023 31.6016 34.7273 32.7041 34.3773 33.8067C34.0023 35.0374 33.6273 36.3195 33.2273 37.6016C32.8773 38.9092 32.5023 40.1144 32.1273 41.1913Z" fill="#FF9A00"/>
<path d="M53.3523 30.14C52.5273 30.1657 51.7273 29.8323 51.1273 29.2426C50.5523 28.6016 50.2523 27.7554 50.2773 26.8836C50.2523 26.0118 50.5773 25.1913 51.1773 24.6016C51.7773 24.0118 52.5773 23.7041 53.4023 23.7041C54.3773 23.7041 55.1273 24.0118 55.6773 24.6016C56.2273 25.2169 56.5273 26.0375 56.5023 26.8836C56.5273 27.7554 56.2273 28.6016 55.6273 29.2426C55.0523 29.858 54.2023 30.1913 53.3523 30.14ZM50.5523 52.3964V32.6528C50.5523 32.3964 50.6523 32.2939 50.8773 32.2939H55.8273C56.0523 32.2939 56.1523 32.4221 56.1523 32.6528V52.3964C56.1523 52.6785 56.0523 52.8067 55.8273 52.8067H50.9273C50.6773 52.8067 50.5523 52.6528 50.5523 52.3964Z" fill="#FF9A00"/>
<path d="M90.9023 70.3964C90.9023 75.9193 86.4252 80.3964 80.9023 80.3964C75.3795 80.3964 70.9023 75.9193 70.9023 70.3964C70.9023 64.8736 75.3795 60.3964 80.9023 60.3964C86.4252 60.3964 90.9023 64.8736 90.9023 70.3964Z" fill="#DDC02C"/>
</svg>
