<svg width="91" height="81" viewBox="0 0 91 81" fill="none" xmlns="http://www.w3.org/2000/svg">
<path d="M0.902344 10.3964C0.902344 4.87358 5.3795 0.396423 10.9023 0.396423H70.9023C76.4252 0.396423 80.9023 4.87358 80.9023 10.3964V70.3964C80.9023 75.9193 76.4252 80.3964 70.9023 80.3964H10.9023C5.3795 80.3964 0.902344 75.9193 0.902344 70.3964V10.3964Z" fill="#F5F5F5"/>
<path d="M90.9023 70.3964C90.9023 75.9193 86.4252 80.3964 80.9023 80.3964C75.3795 80.3964 70.9023 75.9193 70.9023 70.3964C70.9023 64.8736 75.3795 60.3964 80.9023 60.3964C86.4252 60.3964 90.9023 64.8736 90.9023 70.3964Z" fill="#FF9A00"/>
<path d="M21.5273 10.3964H60.2773C61.673 10.3951 63.0552 10.676 64.3449 11.2232C65.6346 11.7704 66.8064 12.573 67.7933 13.5852C68.7802 14.5974 69.5628 15.7993 70.0963 17.122C70.6297 18.4447 70.9037 19.8624 70.9023 21.2939V59.499C70.9037 60.9304 70.6297 62.3481 70.0963 63.6708C69.5628 64.9936 68.7802 66.1955 67.7933 67.2076C66.8064 68.2198 65.6346 69.0225 64.3449 69.5697C63.0552 70.1168 61.673 70.3978 60.2773 70.3964H21.5273C20.1317 70.3978 18.7495 70.1168 17.4598 69.5697C16.1701 69.0225 14.9983 68.2198 14.0114 67.2076C13.0245 66.1955 12.2419 64.9936 11.7084 63.6708C11.175 62.3481 10.901 60.9304 10.9023 59.499V21.2939C10.901 19.8624 11.175 18.4447 11.7084 17.122C12.2419 15.7993 13.0245 14.5974 14.0114 13.5852C14.9983 12.573 16.1701 11.7704 17.4598 11.2232C18.7495 10.676 20.1317 10.3951 21.5273 10.3964Z" fill="#49021F"/>
<path d="M32.7023 26.0887V52.3964C32.7023 52.6785 32.5773 52.8067 32.3523 52.8067H27.4523C27.2273 52.8067 27.1273 52.6785 27.1273 52.3964V26.0887C27.1273 25.858 27.2523 25.7554 27.4773 25.7554H32.3523C32.3902 25.7493 32.429 25.7511 32.4661 25.7608C32.5033 25.7706 32.5382 25.788 32.5686 25.8119C32.599 25.8359 32.6243 25.866 32.643 25.9004C32.6617 25.9348 32.6734 25.9727 32.6773 26.0118C32.6868 26.0219 32.6939 26.0341 32.6983 26.0474C32.7026 26.0607 32.704 26.0748 32.7023 26.0887ZM47.1023 53.2169C45.2492 53.2481 43.4127 52.8539 41.7273 52.0631C40.1593 51.311 38.8451 50.097 37.9523 48.5759C37.0273 47.0118 36.5773 45.0631 36.5773 42.7298C36.552 40.8322 37.0271 38.9629 37.9523 37.3195C38.9011 35.6492 40.2752 34.2753 41.9273 33.3451C43.6773 32.3451 45.7773 31.858 48.2523 31.858C48.4277 31.8559 48.603 31.8645 48.7773 31.8836C49.0023 31.9092 49.2523 31.9092 49.5523 31.9349V23.8323C49.5523 23.6528 49.6273 23.5503 49.8023 23.5503H54.8773C54.9334 23.5425 54.9902 23.5566 55.0365 23.5899C55.0829 23.6232 55.1153 23.6731 55.1273 23.7298V48.1913C55.1273 48.6528 55.1523 49.1657 55.1773 49.7298C55.2023 50.2939 55.2523 50.781 55.2773 51.2169C55.2827 51.3035 55.2614 51.3897 55.2166 51.4632C55.1717 51.5368 55.1056 51.5942 55.0273 51.6272C53.7179 52.1916 52.3511 52.6045 50.9523 52.858C49.6819 53.0941 48.3935 53.2143 47.1023 53.2169ZM49.5523 48.0887V36.8067C49.3297 36.7516 49.1044 36.7088 48.8773 36.6785C48.6023 36.6528 48.3273 36.6272 48.0523 36.6272C47.0724 36.6159 46.1039 36.8444 45.2273 37.2939C44.373 37.7305 43.6416 38.3836 43.1023 39.1913C42.5523 40.0118 42.2773 41.1144 42.2773 42.4477C42.2556 43.3476 42.3998 44.2437 42.7023 45.0887C42.9441 45.7721 43.328 46.3933 43.8273 46.9092C44.3093 47.381 44.8911 47.732 45.5273 47.9349C46.197 48.1598 46.8977 48.2724 47.6023 48.2682C47.9773 48.2682 48.3273 48.2426 48.6523 48.2169C48.9578 48.2411 49.2648 48.1974 49.5523 48.0887Z" fill="#FF3366"/>
</svg>
