<svg width="91" height="81" viewBox="0 0 91 81" fill="none" xmlns="http://www.w3.org/2000/svg">
<path d="M0.902344 10.3964C0.902344 4.87358 5.3795 0.396423 10.9023 0.396423H70.9023C76.4252 0.396423 80.9023 4.87358 80.9023 10.3964V70.3964C80.9023 75.9193 76.4252 80.3964 70.9023 80.3964H10.9023C5.3795 80.3964 0.902344 75.9193 0.902344 70.3964V10.3964Z" fill="#F5F5F5"/>
<path d="M21.5273 11.4031H60.2773C66.1523 11.4031 70.9023 16.1115 70.9023 21.9351V58.8592C70.9023 64.6828 66.1523 69.3912 60.2773 69.3912H21.5273C15.6523 69.3912 10.9023 64.6828 10.9023 58.8592V21.9351C10.9023 16.1115 15.6523 11.4031 21.5273 11.4031Z" fill="#001E36"/>
<path d="M24.4023 52.0684V26.5685C24.4023 26.395 24.4773 26.2959 24.6523 26.2959C25.0773 26.2959 25.4773 26.2959 26.0523 26.2711C26.6523 26.2463 27.2773 26.2463 27.9523 26.2216C28.6273 26.1968 29.3523 26.1968 30.1273 26.172C30.9023 26.1472 31.6523 26.1472 32.4023 26.1472C34.4523 26.1472 36.1523 26.395 37.5523 26.9154C38.8023 27.3367 39.9523 28.0306 40.9023 28.9475C41.7023 29.7405 42.3273 30.707 42.7273 31.7726C43.1023 32.8134 43.3023 33.879 43.3023 34.9941C43.3023 37.1253 42.8023 38.8848 41.8023 40.2725C40.8023 41.6603 39.4023 42.7011 37.7773 43.2958C36.0773 43.9154 34.2023 44.1384 32.1523 44.1384C31.5523 44.1384 31.1523 44.1384 30.9023 44.1136C30.6523 44.0888 30.3023 44.0888 29.8273 44.0888V52.0436C29.8523 52.2171 29.7273 52.3658 29.5523 52.3905H24.7023C24.5023 52.3905 24.4023 52.2914 24.4023 52.0684ZM29.8523 31.0787V39.4052C30.2023 39.43 30.5273 39.4547 30.8273 39.4547H32.1523C33.1273 39.4547 34.1023 39.306 35.0273 39.0087C35.8273 38.7856 36.5273 38.3148 37.0773 37.6953C37.6023 37.0757 37.8523 36.2332 37.8523 35.1428C37.8773 34.3746 37.6773 33.6064 37.2773 32.9373C36.8523 32.293 36.2523 31.7973 35.5273 31.5247C34.6023 31.153 33.6023 31.0043 32.5773 31.0291C31.9273 31.0291 31.3523 31.0291 30.8773 31.0539C30.3773 31.0291 30.0273 31.0539 29.8523 31.0787ZM58.9023 37.8935C58.1523 37.497 57.3523 37.2244 56.5023 37.051C55.5773 36.8527 54.6523 36.7288 53.7023 36.7288C53.2023 36.704 52.6773 36.7784 52.2023 36.9023C51.8773 36.9766 51.6023 37.1501 51.4273 37.3979C51.3023 37.5961 51.2273 37.844 51.2273 38.067C51.2273 38.29 51.3273 38.513 51.4773 38.7113C51.7023 38.9839 52.0023 39.2069 52.3273 39.3804C52.9023 39.6778 53.5023 39.9504 54.1023 40.1982C55.4523 40.6442 56.7523 41.2638 57.9523 42.0072C58.7773 42.5276 59.4523 43.2215 59.9273 44.064C60.3273 44.857 60.5273 45.7244 60.5023 46.6165C60.5273 47.7812 60.1773 48.9459 59.5273 49.9124C58.8273 50.9037 57.8523 51.6719 56.7273 52.118C55.5023 52.6384 54.0023 52.9109 52.2023 52.9109C51.0523 52.9109 49.9273 52.8118 48.8023 52.5888C47.9273 52.4401 47.0523 52.1675 46.2523 51.7958C46.0773 51.6967 45.9523 51.5232 45.9773 51.325V47.013C45.9773 46.9387 46.0023 46.8395 46.0773 46.79C46.1523 46.7404 46.2273 46.7652 46.3023 46.8148C47.2773 47.3847 48.3023 47.7812 49.4023 48.029C50.3523 48.2769 51.3523 48.4008 52.3523 48.4008C53.3023 48.4008 53.9773 48.2769 54.4273 48.0538C54.8273 47.8804 55.1023 47.4591 55.1023 47.013C55.1023 46.6661 54.9023 46.3439 54.5023 46.0218C54.1023 45.6996 53.2773 45.3279 52.0523 44.857C50.7773 44.411 49.6023 43.8162 48.5023 43.0728C47.7273 42.5276 47.0773 41.809 46.6023 40.9664C46.2023 40.1734 46.0023 39.306 46.0273 38.4387C46.0273 37.3731 46.3273 36.3571 46.8773 35.4402C47.5023 34.4489 48.4273 33.6559 49.5023 33.1603C50.6773 32.5656 52.1523 32.293 53.9273 32.293C54.9523 32.293 56.0023 32.3673 57.0273 32.516C57.7773 32.6151 58.5023 32.8134 59.1773 33.086C59.2773 33.1107 59.3773 33.2099 59.4273 33.309C59.4523 33.4081 59.4773 33.5072 59.4773 33.6064V37.6457C59.4773 37.7448 59.4273 37.844 59.3523 37.8935C59.1273 37.9431 59.0023 37.9431 58.9023 37.8935Z" fill="#31A8FF"/>
<path d="M90.9023 70.3964C90.9023 75.9193 86.4252 80.3964 80.9023 80.3964C75.3795 80.3964 70.9023 75.9193 70.9023 70.3964C70.9023 64.8736 75.3795 60.3964 80.9023 60.3964C86.4252 60.3964 90.9023 64.8736 90.9023 70.3964Z" fill="#FF9A00"/>
</svg>
