<svg width="91" height="81" viewBox="0 0 91 81" fill="none" xmlns="http://www.w3.org/2000/svg">
<path d="M0.902344 10.3964C0.902344 4.87358 5.3795 0.396423 10.9023 0.396423H70.9023C76.4252 0.396423 80.9023 4.87358 80.9023 10.3964V70.3964C80.9023 75.9193 76.4252 80.3964 70.9023 80.3964H10.9023C5.3795 80.3964 0.902344 75.9193 0.902344 70.3964V10.3964Z" fill="#F5F5F5"/>
<path d="M63.5297 17.769C57.4857 11.725 49.4497 8.39642 40.9022 8.39642C32.3547 8.39642 24.3188 11.725 18.2749 17.769C12.2309 23.8129 8.90234 31.8488 8.90234 40.3964C8.90234 48.9439 12.2309 56.9798 18.2749 63.0237C24.3188 69.0677 32.3548 72.3963 40.9023 72.3963C49.4499 72.3963 57.4857 69.0677 63.5298 63.0237C69.5738 56.9798 72.9023 48.9438 72.9023 40.3964C72.9022 31.8488 69.5736 23.8129 63.5297 17.769ZM40.9022 70.1389C24.5021 70.1389 11.1597 56.7965 11.1597 40.3964C11.1597 23.9963 24.5021 10.6538 40.9022 10.6538C57.3023 10.6538 70.6447 23.9963 70.6447 40.3964C70.6447 56.7965 57.3024 70.1389 40.9022 70.1389Z" fill="#00769D"/>
<path d="M28.1005 28.1479H24.5662L34.2016 55.385L39.5958 39.9703L35.4136 28.1479H31.6846V25.5526H48.1978V28.1479H44.3308L53.9661 55.385L57.4297 45.4873C61.9731 32.8063 53.7058 28.8562 53.7058 26.0261C53.7058 23.1961 56 20.902 58.83 20.902C58.9831 20.902 59.1318 20.9102 59.2774 20.9238C54.4824 16.3972 48.0167 13.6214 40.9021 13.6214C31.6057 13.6214 23.417 18.36 18.6167 25.5526H28.1002L28.1005 28.1479Z" fill="#00769D"/>
<path d="M14.1272 40.3964C14.1272 50.6473 19.8888 59.5512 28.3494 64.0505L16.2663 29.8944C14.8899 33.119 14.1272 36.6686 14.1272 40.3964Z" fill="#00769D"/>
<path d="M64.2044 27.2025C64.5874 29.4576 64.4714 31.9922 63.8837 34.5366H63.9902L63.5854 35.6934C63.3455 36.5288 63.0434 37.3832 62.7003 38.2228L53.4873 64.0332C61.9302 59.5285 67.6771 50.6342 67.6771 40.3963C67.6771 35.5989 66.4141 31.0969 64.2044 27.2025Z" fill="#00769D"/>
<path d="M32.6445 65.8715C35.2457 66.7141 38.0203 67.1712 40.9023 67.1712C43.6511 67.1712 46.3029 66.7563 48.7993 65.9868L40.9673 43.8475L32.6445 65.8715Z" fill="#00769D"/>
<path d="M90.9023 70.3964C90.9023 75.9193 86.4252 80.3964 80.9023 80.3964C75.3795 80.3964 70.9023 75.9193 70.9023 70.3964C70.9023 64.8736 75.3795 60.3964 80.9023 60.3964C86.4252 60.3964 90.9023 64.8736 90.9023 70.3964Z" fill="#DDC02C"/>
</svg>
